<?xml version="1.0" encoding="UTF-8"?>
<svg version="1.1" xmlns="http://www.w3.org/2000/svg" width="500" height="500">
<path d="M0 0 C1.04607422 0.32726074 1.04607422 0.32726074 2.11328125 0.66113281 C46.15983478 14.52416648 88.10542285 42.87135594 116 80 C116.48533203 80.64130859 116.97066406 81.28261719 117.47070312 81.94335938 C156.5623871 133.85977563 174.0209686 198.36133544 165.47827148 263.00195312 C157.28840566 318.19668523 129.623152 373.12301518 86 409 C85.15566406 409.7321875 84.31132812 410.464375 83.44140625 411.21875 C65.58916503 426.52759186 45.41312438 439.25866186 24 449 C22.99839844 449.4640625 21.99679687 449.928125 20.96484375 450.40625 C-37.0809103 475.46388894 -105.68161482 473.64851573 -164 451 C-179.77977894 444.30087561 -195.0503516 435.96658618 -209 426 C-209.61053223 425.56461914 -210.22106445 425.12923828 -210.85009766 424.68066406 C-219.56194848 418.42633213 -227.67899183 411.81576431 -235.42578125 404.3984375 C-237.95175073 401.915634 -237.95175073 401.915634 -241 400 C-241 399.34 -241 398.68 -241 398 C-241.59683594 397.73832031 -242.19367188 397.47664063 -242.80859375 397.20703125 C-245.14283074 395.92132852 -246.3599093 394.72102904 -248.0625 392.6875 C-248.66835937 391.96820313 -249.27421875 391.24890625 -249.8984375 390.5078125 C-250.59195313 389.68023437 -251.28546875 388.85265625 -252 388 C-252.81726563 387.06929688 -253.63453125 386.13859375 -254.4765625 385.1796875 C-296.07903506 337.6143972 -315.69151557 274.42205564 -311.79345703 211.67529297 C-308.56309086 168.39815673 -294.48264209 124.76506203 -268 90 C-266.68476538 88.16862749 -265.37229535 86.3352666 -264.0625 84.5 C-255.75657895 73.10197368 -255.75657895 73.10197368 -251 68 C-250.34 68 -249.68 68 -249 68 C-248.79375 67.46890625 -248.5875 66.9378125 -248.375 66.390625 C-246.42038808 62.99226564 -243.77876283 60.48944072 -241 57.75 C-240.4534375 57.19570312 -239.906875 56.64140625 -239.34375 56.0703125 C-235.2533867 52 -235.2533867 52 -233 52 C-233 51.34 -233 50.68 -233 50 C-227.52380952 45 -227.52380952 45 -225 45 C-225 44.34 -225 43.68 -225 43 C-223.63330078 41.75415039 -223.63330078 41.75415039 -221.6953125 40.34765625 C-220.97577393 39.82389404 -220.25623535 39.30013184 -219.51489258 38.76049805 C-218.33189575 37.91998901 -218.33189575 37.91998901 -217.125 37.0625 C-215.91009888 36.19395386 -215.91009888 36.19395386 -214.6706543 35.30786133 C-206.36387691 29.44005077 -197.78874263 24.10968594 -189 19 C-188.39720215 18.64099609 -187.7944043 18.28199219 -187.17333984 17.91210938 C-132.56851051 -14.43943494 -59.72543739 -19.50492888 0 0 Z M-223 94 C-259.53789189 135.30629539 -276.72576234 188.60243527 -273.67919922 243.46289062 C-272.49073667 259.9755681 -269.42121751 276.35541554 -264 292 C-263.59056152 293.19906982 -263.59056152 293.19906982 -263.17285156 294.42236328 C-250.23310123 331.76176438 -227.32358649 364.93385696 -195.64306641 388.76269531 C-194.17373874 389.86916673 -192.71684799 390.99210897 -191.26171875 392.1171875 C-151.2705045 422.33816579 -97.86868432 436.08525093 -48.19824219 429.63623047 C-41.41957753 428.6490574 -34.70502253 427.39857894 -28 426 C-27.18176758 425.83016602 -26.36353516 425.66033203 -25.52050781 425.48535156 C25.01511541 414.5740131 69.81248792 380.87347881 97.58984375 337.84765625 C112.31638363 314.56677292 122.42001782 289.22253167 127 262 C127.17660156 260.98566895 127.35320312 259.97133789 127.53515625 258.92626953 C129.04514552 249.49827404 129.40007754 240.2726253 129.375 230.75 C129.37445618 229.96719666 129.37391235 229.18439331 129.37335205 228.37786865 C129.32769068 213.97992468 128.06756729 200.09755462 125 186 C124.69449219 184.59137695 124.69449219 184.59137695 124.3828125 183.15429688 C113.88264859 136.77857294 85.59784944 93.81658799 47 66 C45.98550781 65.25234375 44.97101563 64.5046875 43.92578125 63.734375 C-35.57454659 6.67767798 -144.38610243 18.59429717 -223 94 Z " fill="#ADADAD" transform="translate(322,21)"/>
<path d="M0 0 C3.45004198 -0.03705296 6.88658146 0.00771623 10.3359375 0.08984375 C11.55168457 0.11667236 11.55168457 0.11667236 12.79199219 0.14404297 C36.81320328 0.7408703 60.78997783 3.2574138 79.05078125 20.62109375 C92.54287722 35.19717008 95.70294818 54.42388805 95.6484375 73.58984375 C95.66455078 74.72292969 95.68066406 75.85601562 95.69726562 77.0234375 C95.70713248 94.25097273 90.02022287 109.27465698 77.9140625 121.70703125 C69.82393035 129.1842746 60.00963278 134.31176829 50.53173828 139.8125 C47.03858129 141.84454329 43.55896872 143.89862645 40.0859375 145.96484375 C39.47854736 146.32175293 38.87115723 146.67866211 38.24536133 147.04638672 C30.6445494 151.57675685 26.09800569 155.57858176 23.3359375 164.08984375 C22.71020851 167.86889433 22.36138756 171.66950657 22.14379883 175.49267578 C21.75910416 181.00884712 20.43152459 185.45237736 17.3359375 190.08984375 C11.44522941 194.65514252 4.53702794 194.80696479 -2.6640625 194.08984375 C-7.95761947 192.47456269 -11.74619724 189.87514278 -14.6640625 185.08984375 C-18.00456147 171.75026732 -15.21979495 155.08018338 -8.6640625 143.08984375 C0.75692279 128.55081815 12.76529843 120.50086291 27.55859375 112.12890625 C28.47995117 111.60651367 29.40130859 111.08412109 30.35058594 110.54589844 C32.17185189 109.51670836 33.99656764 108.49359158 35.82519531 107.47753906 C46.21060915 101.63745512 53.43465852 96.83417839 57.3359375 85.08984375 C59.68585723 72.32519102 58.94816258 58.31382749 52.359375 46.9453125 C51.3359375 45.08984375 51.3359375 45.08984375 51.3359375 43.08984375 C49.66989152 42.42162747 48.00308016 41.7553192 46.3359375 41.08984375 C45.48515625 40.74824219 44.634375 40.40664062 43.7578125 40.0546875 C42.87609375 39.71566406 41.994375 39.37664062 41.0859375 39.02734375 C39.77882813 38.51494141 39.77882813 38.51494141 38.4453125 37.9921875 C31.1063817 35.86242241 23.44050233 35.93106489 15.8515625 35.921875 C14.38538483 35.9168824 14.38538483 35.9168824 12.8895874 35.91178894 C10.83232082 35.90675436 8.77504617 35.90437953 6.71777344 35.90454102 C3.60858359 35.90235964 0.49975205 35.88418046 -2.609375 35.86523438 C-25.00459672 34.97366393 -25.00459672 34.97366393 -44.5078125 43.89453125 C-50.62688833 52.08329449 -51.64701097 61.97138093 -52.1015625 71.90234375 C-52.42023476 77.73464731 -52.83834864 82.49662556 -56.6640625 87.08984375 C-62.02736485 91.75358493 -67.31404078 91.69476466 -74.2734375 91.47265625 C-78.73972838 90.9683976 -82.21827221 90.0459691 -85.6640625 87.08984375 C-92.46421002 76.56058308 -89.94064205 62.7314437 -87.6640625 51.08984375 C-83.52072387 33.79937291 -75.05217637 20.35030536 -59.80859375 10.83984375 C-41.47184443 0.63504413 -20.46922932 0.50191074 0 0 Z " fill="#ACACAC" transform="translate(246.6640625,119.91015625)"/>
<path d="M0 0 C1.38155273 -0.04350586 1.38155273 -0.04350586 2.79101562 -0.08789062 C8.91162885 -0.14436186 13.86062389 0.48591278 18.8125 4.3125 C22.71164027 9.38524289 22.29497251 15.11329718 22.25 21.25 C22.2799707 22.69536133 22.2799707 22.69536133 22.31054688 24.16992188 C22.30628514 30.4048331 21.70159172 34.34921656 17.8125 39.3125 C12.66131451 43.14066065 7.10172736 42.79538588 0.9375 42.75 C-0.49529297 42.7799707 -0.49529297 42.7799707 -1.95703125 42.81054688 C-8.16111258 42.80629168 -13.05698687 41.97044825 -18.1875 38.3125 C-22.31491376 32.98680483 -22.39231201 27.53531313 -22.4375 21 C-22.4684375 19.89881836 -22.4684375 19.89881836 -22.5 18.77539062 C-22.53715446 13.54125652 -21.6790887 9.9405678 -19.1875 5.3125 C-12.84234512 0.28925239 -7.75292969 0.07970798 0 0 Z " fill="#A9A9A9" transform="translate(249.1875,336.6875)"/>
<path d="M0 0 C0.33 0 0.66 0 1 0 C2.04608989 5.11513245 2.11723352 9.99623637 2.0625 15.1875 C2.05798828 15.99380859 2.05347656 16.80011719 2.04882812 17.63085938 C2.04015526 19.12135315 2.02941719 20.61183749 2.01586914 22.10229492 C2.00221755 23.73481477 2 25.36742307 2 27 C0.02 27.99 0.02 27.99 -2 29 C-1.855625 28.16339844 -1.71125 27.32679688 -1.5625 26.46484375 C-0.13501218 17.51330556 0.22819383 9.05168853 0 0 Z " fill="#555555" transform="translate(305,181)"/>
<path d="M0 0 C0.3125 2.3125 0.3125 2.3125 0 5 C-2.25 6.875 -2.25 6.875 -5 8 C-7.3125 7.6875 -7.3125 7.6875 -9 7 C-8.34 6.34 -7.68 5.68 -7 5 C-6.175 4.13375 -5.35 3.2675 -4.5 2.375 C-2 0 -2 0 0 0 Z " fill="#8B8B8B" transform="translate(264,305)"/>
<path d="M0 0 C0.66 1.32 1.32 2.64 2 4 C1.01 4.33 0.02 4.66 -1 5 C-1.33 5.99 -1.66 6.98 -2 8 C-4.0625 9.1875 -4.0625 9.1875 -6 10 C-4.6302836 6.00499382 -2.74277578 3.19990508 0 0 Z " fill="#676767" transform="translate(244,255)"/>
<path d="M0 0 C0.66 0.33 1.32 0.66 2 1 C-0.31354642 5.74885845 -0.31354642 5.74885845 -3.5625 6.9375 C-4.366875 6.958125 -5.17125 6.97875 -6 7 C-6.66 6.34 -7.32 5.68 -8 5 C-6.71475739 4.13619741 -5.42157581 3.28419631 -4.125 2.4375 C-3.04605469 1.72400391 -3.04605469 1.72400391 -1.9453125 0.99609375 C-1.30335938 0.66738281 -0.66140625 0.33867187 0 0 Z " fill="#727272" transform="translate(291,222)"/>
<path d="M0 0 C0.66 0 1.32 0 2 0 C2.6875 1.75 2.6875 1.75 3 4 C1.5625 6.25 1.5625 6.25 0 8 C-0.66 7.67 -1.32 7.34 -2 7 C-1.125 2.25 -1.125 2.25 0 0 Z " fill="#7D7D7D" transform="translate(267,368)"/>
<path d="M0 0 C5.75 1.625 5.75 1.625 8 5 C7.34 5.66 6.68 6.32 6 7 C4.02 4.69 2.04 2.38 0 0 Z " fill="#848484" transform="translate(70,408)"/>
<path d="M0 0 C0 0.66 0 1.32 0 2 C-3.44450737 4.29633824 -5.93812283 4.54016485 -10 5 C-6.82795656 1.48809477 -4.74687042 0 0 0 Z " fill="#929292" transform="translate(124,48)"/>
<path d="M0 0 C0.66 1.32 1.32 2.64 2 4 C0.35 4.33 -1.3 4.66 -3 5 C-3.33 5.99 -3.66 6.98 -4 8 C-4.66 7.67 -5.32 7.34 -6 7 C-4.02 4.69 -2.04 2.38 0 0 Z " fill="#737373" transform="translate(405,378)"/>
<path d="M0 0 C0.33 0.99 0.66 1.98 1 3 C-1.31 4.98 -3.62 6.96 -6 9 C-4.68775452 5.06326356 -3.08089673 2.77280706 0 0 Z " fill="#5E5E5E" transform="translate(175,140)"/>
<path d="M0 0 C0.66 0.33 1.32 0.66 2 1 C1.34 2.98 0.68 4.96 0 7 C-0.99 6.34 -1.98 5.68 -3 5 C-1.125 1.125 -1.125 1.125 0 0 Z " fill="#8A8A8A" transform="translate(420,134)"/>
<path d="M0 0 C0.66 0.33 1.32 0.66 2 1 C-0.97 3.475 -0.97 3.475 -4 6 C-4.99 5.34 -5.98 4.68 -7 4 C-1.7265625 0.77734375 -1.7265625 0.77734375 0 0 Z " fill="#6A6A6A" transform="translate(352,423)"/>
<path d="M0 0 C1.98 0.99 3.96 1.98 6 3 C5.34 3.66 4.68 4.32 4 5 C1.875 4.625 1.875 4.625 0 4 C0 2.68 0 1.36 0 0 Z " fill="#8E8E8E" transform="translate(136,417)"/>
<path d="M0 0 C0.66 0.33 1.32 0.66 2 1 C-0.25 3.5625 -0.25 3.5625 -3 6 C-4.32 5.67 -5.64 5.34 -7 5 C-4.69 3.35 -2.38 1.7 0 0 Z " fill="#616161" transform="translate(367,413)"/>
</svg>
