<?xml version="1.0" standalone="no"?>
<!DOCTYPE svg PUBLIC "-//W3C//DTD SVG 20010904//EN"
 "http://www.w3.org/TR/2001/REC-SVG-20010904/DTD/svg10.dtd">
<svg version="1.0" xmlns="http://www.w3.org/2000/svg"
 width="500.000000pt" height="500.000000pt" viewBox="0 0 500.000000 500.000000"
 preserveAspectRatio="xMidYMid meet">

<g transform="translate(0.000000,500.000000) scale(0.100000,-0.100000)"
fill="#000000" stroke="none">
<path d="M2350 4519 c-423 -23 -819 -182 -1162 -468 -583 -488 -840 -1286
-653 -2031 166 -662 674 -1206 1326 -1419 963 -315 2009 136 2445 1054 260
548 256 1187 -11 1740 -154 319 -390 588 -701 797 -360 243 -772 352 -1244
327z m402 -700 c256 -50 470 -163 662 -349 207 -200 337 -440 390 -719 24
-126 22 -375 -5 -504 -92 -454 -414 -829 -849 -990 -154 -57 -272 -77 -458
-77 -371 0 -666 118 -928 372 -206 200 -327 421 -385 701 -28 140 -29 370 -1
512 89 444 391 812 807 982 238 97 511 122 767 72z"/>
<path d="M2321 3732 c-17 -12 -27 -214 -17 -314 l7 -65 177 4 c358 10 641 -56
970 -227 l133 -69 -22 37 c-74 123 -124 188 -213 278 -181 181 -369 284 -621
340 -82 18 -393 30 -414 16z"/>
<path d="M2093 3670 c-170 -60 -403 -200 -417 -252 -3 -13 -4 -102 -2 -198 5
-207 28 -348 86 -521 55 -167 177 -401 259 -499 l28 -34 115 114 c103 104 258
303 258 334 0 5 -20 51 -44 101 -124 255 -199 620 -181 888 5 77 4 97 -7 97
-7 -1 -50 -14 -95 -30z"/>
<path d="M1479 3199 c-92 -136 -117 -185 -157 -304 -104 -311 -73 -675 80
-952 28 -51 55 -93 60 -93 15 0 181 66 239 95 69 35 238 135 244 144 2 5 -29
58 -69 119 -189 286 -299 621 -314 961 l-7 144 -76 -114z"/>
<path d="M2368 3243 c-27 -2 -48 -7 -48 -11 0 -4 11 -53 25 -109 27 -114 71
-233 134 -364 l41 -86 87 -7 c371 -29 704 -152 991 -365 45 -34 84 -61 86 -61
2 0 10 24 18 53 19 76 16 379 -6 477 -9 41 -23 84 -30 95 -20 30 -173 130
-292 191 -301 153 -639 216 -1006 187z"/>
<path d="M2474 2490 c-202 -313 -524 -576 -869 -710 -33 -13 -64 -27 -70 -32
-21 -19 206 -222 341 -303 l53 -32 88 29 c126 41 372 166 483 245 122 87 326
291 412 413 37 52 97 153 134 224 l65 129 -28 12 c-101 42 -375 95 -496 95
l-67 0 -46 -70z"/>
<path d="M3166 2327 c-95 -203 -230 -390 -402 -557 -175 -169 -375 -303 -577
-387 -48 -20 -84 -39 -80 -43 4 -4 60 -18 123 -31 158 -32 371 -32 513 0 378
86 673 320 851 677 66 134 66 133 9 184 -85 75 -353 240 -390 240 -5 0 -25
-37 -47 -83z"/>
</g>
</svg>
