<?xml version="1.0" encoding="UTF-8"?>
<svg version="1.1" xmlns="http://www.w3.org/2000/svg" width="500" height="500">
<path d="M0 0 C3.03137562 2.71538588 5.984723 5.50781966 8.92578125 8.3203125 C9.85261719 9.19429687 10.77945312 10.06828125 11.734375 10.96875 C22.77011644 21.64446016 31.61626862 33.79726699 39.87695312 46.68798828 C40.76006169 48.06239793 41.66120331 49.4251966 42.56640625 50.78515625 C61.45671207 80.3142332 69.38910692 117.36389108 69.23828125 151.9453125 C69.2361261 152.83282196 69.23397095 153.72033142 69.23175049 154.63473511 C69.18188151 167.41863419 68.86541554 179.82555676 65.92578125 192.3203125 C65.72178711 193.22410645 65.51779297 194.12790039 65.30761719 195.05908203 C54.49737507 242.13162832 27.28597569 287.65897902 -13.07421875 315.3203125 C-14.0482666 315.98836914 -14.0482666 315.98836914 -15.04199219 316.66992188 C-46.95313755 338.32231344 -84.20296775 352.35273807 -123.07421875 353.3203125 C-124.3684375 353.36027344 -125.66265625 353.40023438 -126.99609375 353.44140625 C-169.76932835 354.35028004 -213.47443247 341.89187467 -248.07421875 316.3203125 C-249.12351562 315.55332031 -250.1728125 314.78632813 -251.25390625 313.99609375 C-258.98530738 308.24800971 -266.10207072 301.9599737 -273.07421875 295.3203125 C-273.780625 294.66675781 -274.48703125 294.01320313 -275.21484375 293.33984375 C-281.57055132 287.28125259 -286.79867 280.31083447 -292.07421875 273.3203125 C-292.50524902 272.75538086 -292.9362793 272.19044922 -293.38037109 271.60839844 C-324.32386299 230.83495628 -337.47930717 177.25328496 -331.05200195 126.61303711 C-330.75150616 124.51053828 -330.42020991 122.41577941 -330.07421875 120.3203125 C-329.96126465 119.6077832 -329.84831055 118.89525391 -329.73193359 118.16113281 C-324.17794018 84.53976976 -309.7913729 52.53999751 -288.07421875 26.3203125 C-287.59307617 25.73765625 -287.11193359 25.155 -286.61621094 24.5546875 C-252.23478181 -16.83568892 -203.91946836 -42.52668449 -150.32421875 -47.9296875 C-95.99142522 -52.73242088 -41.13482452 -36.19656082 0 0 Z " fill="#0B0447" transform="translate(381.07421875,106.6796875)"/>
<path d="M0 0 C27.72 0 55.44 0 84 0 C82.68 5.28 81.36 10.56 80 16 C79.67 18.64 79.34 21.28 79 24 C76.5625 26.75 76.5625 26.75 74 29 C71.41850914 33.22586518 71.45581834 37.17771328 72 42 C73.55607654 46.20140665 75.13049468 48.70248122 79 51 C80.485 51.495 80.485 51.495 82 52 C82.0093457 52.55872803 82.01869141 53.11745605 82.02832031 53.69311523 C82.08268988 56.27540323 82.16619709 58.85600598 82.25 61.4375 C82.26417969 62.31599609 82.27835937 63.19449219 82.29296875 64.09960938 C82.32519531 64.97294922 82.35742188 65.84628906 82.390625 66.74609375 C82.4220459 67.93223267 82.4220459 67.93223267 82.45410156 69.14233398 C83.26619018 73.39345083 85.13986711 77.11217595 87 81 C78.56746447 81.11635778 70.13526987 81.20494784 61.70212746 81.25906086 C57.78534005 81.28504559 53.86910584 81.32023604 49.95263672 81.37719727 C46.16596493 81.43191985 42.37982187 81.46150398 38.59278488 81.47438622 C37.15518252 81.48355468 35.71760587 81.50145721 34.28023148 81.52865028 C25.61313359 81.68595055 18.25216158 81.26048006 11 76 C3.90346229 68.65973289 3.59952025 59.50603516 2.9296875 49.78515625 C2.84373322 48.61544785 2.75777893 47.44573944 2.66921997 46.24058533 C2.48938913 43.77400336 2.31310078 41.30716088 2.14013672 38.84008789 C1.8761104 35.07832057 1.60112353 31.3174797 1.32421875 27.55664062 C1.15039727 25.15369236 0.97719943 22.75069888 0.8046875 20.34765625 C0.72346649 19.22972183 0.64224548 18.11178741 0.55856323 16.9599762 C0.48493561 15.90205368 0.41130798 14.84413116 0.33544922 13.75415039 C0.27042206 12.83372452 0.2053949 11.91329865 0.13839722 10.96498108 C-0.03203593 7.31367177 0 3.65528482 0 0 Z " fill="#FCFBFC" transform="translate(152,298)"/>
<path d="M0 0 C3.66570259 3.06859963 7.05269431 6.3726683 10.41650391 9.76660156 C11.30982422 10.60964844 11.30982422 10.60964844 12.22119141 11.46972656 C21.25129445 20.74388644 26.41650391 35.22116568 26.41650391 47.76660156 C-15.82349609 47.76660156 -58.06349609 47.76660156 -101.58349609 47.76660156 C-101.58349609 30.85378752 -93.12607988 17.52771964 -81.58349609 5.76660156 C-80.96861328 5.12722656 -80.35373047 4.48785156 -79.72021484 3.82910156 C-59.46274375 -15.60418976 -22.18788269 -17.28232861 0 0 Z " fill="#FBFAFB" transform="translate(343.58349609375,272.2333984375)"/>
<path d="M0 0 C2 2 2 2 2.6875 4.6875 C1.58479306 10.00054251 -2.69923115 11.99666091 -7 15 C-10.44685116 17.2196491 -13.95796149 19.31142299 -17.5 21.375 C-19.28192158 22.42333848 -21.06320812 23.47275738 -22.84375 24.5234375 C-23.61912109 24.97638184 -24.39449219 25.42932617 -25.19335938 25.89599609 C-26.95160208 26.87338148 -26.95160208 26.87338148 -28 28 C-28.16034475 31.02786554 -28.25967963 34.03603992 -28.31640625 37.06640625 C-28.33505737 37.8713855 -28.3537085 38.67636475 -28.3729248 39.5057373 C-28.44143407 42.52454221 -28.50144741 45.54353508 -28.5625 48.5625 C-28.706875 55.306875 -28.85125 62.05125 -29 69 C-5.24 69 18.52 69 43 69 C43 77.91 43 86.82 43 96 C-8.48 96 -59.96 96 -113 96 C-113 87.09 -113 78.18 -113 69 C-88.91 69 -64.82 69 -40 69 C-40.15820005 54.04121398 -40.15820005 54.04121398 -40.36035156 39.08300781 C-40.37203504 37.20638945 -40.38222767 35.32976095 -40.390625 33.453125 C-40.41108887 32.48036621 -40.43155273 31.50760742 -40.45263672 30.50537109 C-40.45618749 23.64883141 -40.45618749 23.64883141 -38.26733398 20.53564453 C-37.51911377 20.02888184 -36.77089355 19.52211914 -36 19 C-35.26112549 18.48775879 -34.52225098 17.97551758 -33.76098633 17.44775391 C-32.95943115 16.96226074 -32.15787598 16.47676758 -31.33203125 15.9765625 C-30.43806641 15.43 -29.54410156 14.8834375 -28.62304688 14.3203125 C-27.69556641 13.76085937 -26.76808594 13.20140625 -25.8125 12.625 C-23.98472587 11.51458505 -22.15789443 10.40261685 -20.33203125 9.2890625 C-19.44153076 8.74733398 -18.55103027 8.20560547 -17.63354492 7.64746094 C-14.32408126 5.57716699 -11.11596294 3.37531945 -7.92431641 1.12841797 C-5.17284776 -0.48504157 -3.09769074 -0.60442746 0 0 Z " fill="#F9F9FA" transform="translate(239,116)"/>
<path d="M0 0 C40.92 0 81.84 0 124 0 C124 16.66666667 124 16.66666667 120.77734375 21.38671875 C114.87237094 26.74661714 109.85582868 27.58946895 102.15258789 27.53344727 C101.18905899 27.54206284 100.22553009 27.55067841 99.23280334 27.55955505 C96.06247741 27.5821714 92.89303856 27.57548375 89.72265625 27.56640625 C87.50979857 27.57164385 85.29694313 27.57792082 83.08409119 27.58518982 C78.45154294 27.59558616 73.81930202 27.59104351 69.18676758 27.57641602 C63.26065523 27.55923239 57.33551284 27.58272315 51.40950871 27.61790562 C46.84115721 27.63990382 42.27303691 27.63843214 37.70464897 27.6301403 C35.52024713 27.62932207 33.3358281 27.63616093 31.15147591 27.65091133 C28.09265272 27.66840081 25.03556132 27.65377703 21.97680664 27.63110352 C21.08149231 27.64279572 20.18617798 27.65448792 19.26373291 27.66653442 C13.06858411 27.57346368 8.74643811 26.06442769 4 22 C-1.62838212 15.45703477 0 8.70945897 0 0 Z " fill="#FAFAFB" transform="translate(244,352)"/>
<path d="M0 0 C38.28 0 76.56 0 116 0 C116 15 116 15 115 27 C77.71 27 40.42 27 2 27 C0 6 0 6 0 0 Z " fill="#FEFEFE" transform="translate(146,223)"/>
<path d="M0 0 C36.3 0 72.6 0 110 0 C110 1.98 110 3.96 110 6 C107.328125 8.4609375 107.328125 8.4609375 105.66601562 9.68261719 C102.85091647 11.90862467 100.87205384 14.75629759 98.75 17.625 C98.316875 18.19734375 97.88375 18.7696875 97.4375 19.359375 C95.55044644 21.86379793 93.73977237 24.39034144 92 27 C89.10485019 27.29144999 86.42395361 27.3884983 83.52709961 27.35644531 C82.21233894 27.35951187 82.21233894 27.35951187 80.87101746 27.36264038 C77.96458289 27.36565634 75.05871117 27.34714828 72.15234375 27.328125 C70.13977702 27.32506895 68.12720819 27.32319166 66.11463928 27.32244873 C61.8936455 27.31784068 57.67284198 27.30339457 53.4519043 27.28125 C48.02862035 27.25294912 42.60548635 27.24203733 37.18213558 27.2375679 C33.02586859 27.23342048 28.86963222 27.223609 24.71338081 27.21169281 C22.71300059 27.20597706 20.71261738 27.20122271 18.71223259 27.19742584 C15.92260376 27.19058659 13.13309627 27.17696588 10.34350586 27.16113281 C9.50867676 27.16001495 8.67384766 27.15889709 7.8137207 27.15774536 C2.11468621 27.11468621 2.11468621 27.11468621 1 26 C0.67 17.42 0.34 8.84 0 0 Z " fill="#F9F9FA" transform="translate(149,261)"/>
<path d="M0 0 C1.16094177 -0.00701431 2.32188354 -0.01402863 3.51800537 -0.02125549 C4.79290833 -0.01361176 6.06781128 -0.00596802 7.38134766 0.00190735 C8.73651407 -0.00052042 10.0916787 -0.0042396 11.44683838 -0.00915527 C15.12865836 -0.01857007 18.81021277 -0.00913407 22.49201202 0.00417686 C26.3423314 0.01548293 30.19263754 0.0113845 34.04296875 0.00942993 C40.50932155 0.00854669 46.97556956 0.01963365 53.44189453 0.03804016 C60.92128688 0.05920828 68.40052571 0.06271786 75.87994194 0.0564782 C83.07047429 0.05078632 90.2609525 0.05642812 97.45147705 0.06765175 C100.51362101 0.07230008 103.57573188 0.07317058 106.63787842 0.0710659 C110.24283905 0.06918421 113.84764312 0.0772776 117.45256805 0.0931263 C119.40930698 0.09940269 121.36606964 0.09585866 123.32281494 0.09205627 C124.48375671 0.09914108 125.64469849 0.10622589 126.84082031 0.11352539 C127.85181793 0.11557826 128.86281555 0.11763113 129.90444946 0.11974621 C132.42041016 0.3742218 132.42041016 0.3742218 135.42041016 2.3742218 C135.73291016 5.8742218 135.73291016 5.8742218 135.42041016 9.3742218 C132.77372427 12.02090769 131.57348069 11.62547862 127.87841797 11.62818909 C126.1116571 11.63664856 126.1116571 11.63664856 124.3092041 11.64527893 C123.01043335 11.64123047 121.7116626 11.63718201 120.37353516 11.63301086 C118.9971905 11.63571978 117.62084729 11.63928015 116.24450684 11.64363098 C112.50077274 11.65276916 108.75714856 11.64920489 105.01341248 11.64287281 C101.10122372 11.63782018 97.18904458 11.6425022 93.27685547 11.64564514 C86.70620021 11.64928695 80.13558986 11.64448009 73.56494141 11.63496399 C65.96115647 11.62407901 58.35747878 11.62760444 50.75369644 11.6386168 C44.233075 11.64768359 37.7124859 11.64897794 31.1918602 11.64373946 C27.29394522 11.6406164 23.39608071 11.64021959 19.49816895 11.64681244 C15.83414167 11.65257647 12.17025309 11.64860646 8.50624084 11.63702393 C6.51470126 11.63310419 4.52314998 11.63907102 2.53161621 11.64527893 C1.35377563 11.63963928 0.17593506 11.63399963 -1.03759766 11.62818909 C-2.06556458 11.62743504 -3.09353149 11.62668098 -4.15264893 11.62590408 C-6.57958984 11.3742218 -6.57958984 11.3742218 -8.57958984 9.3742218 C-9.13387909 4.16390292 -9.13387909 4.16390292 -7.40878296 1.70620441 C-4.87021584 -0.14233046 -3.12622517 -0.00051869 0 0 Z " fill="#F3F2F6" transform="translate(242.57958984375,329.6257781982422)"/>
<path d="M0 0 C36.63 0 73.26 0 111 0 C112 7 112 7 112 9 C115.43230448 8.73606499 115.43230448 8.73606499 119 8 C119.66 7.01 120.32 6.02 121 5 C121 5.66 121 6.32 121 7 C122.65 7.33 124.3 7.66 126 8 C123.79664924 10.30004954 121.47632832 12.26558323 118.9375 14.1875 C118.24527344 14.71730469 117.55304688 15.24710937 116.83984375 15.79296875 C115 17 115 17 113 17 C112.505 16.01 112.505 16.01 112 15 C111.01 15.33 110.02 15.66 109 16 C109 16.66 109 17.32 109 18 C106.64561267 19.42944945 105.51967567 20.08661261 102.75 19.625 C101.88375 19.315625 101.88375 19.315625 101 19 C101.66 17.68 102.32 16.36 103 15 C103.99 15 104.98 15 106 15 C105.62875 14.13375 105.62875 14.13375 105.25 13.25 C105.1675 12.5075 105.085 11.765 105 11 C106.33333333 9.66666667 107.66666667 8.33333333 109 7 C109.33 5.02 109.66 3.04 110 1 C73.7 1 37.4 1 0 1 C0 0.67 0 0.34 0 0 Z " fill="#2E285B" transform="translate(149,260)"/>
<path d="M0 0 C0.99 0.66 1.98 1.32 3 2 C2 4 2 4 -1 6 C-1 6.66 -1 7.32 -1 8 C0.98 7.67 2.96 7.34 5 7 C4.67 6.01 4.34 5.02 4 4 C5.65 3.67 7.3 3.34 9 3 C9.69140625 4.80078125 9.69140625 4.80078125 10 7 C8.77734375 8.60546875 8.77734375 8.60546875 6.9375 10.1875 C2.81820906 13.99246754 -0.06069681 18.25189485 -3 23 C-4.25541557 19.23375329 -3.37061958 17.62811066 -2 14 C-3.65 13.67 -5.3 13.34 -7 13 C-7 13.99 -7 14.98 -7 16 C-8.32 16 -9.64 16 -11 16 C-9.55049595 11.64352355 -7.32252888 8.68242711 -4.375 5.1875 C-3.55773437 4.21167969 -2.74046875 3.23585938 -1.8984375 2.23046875 C-1.27195313 1.49441406 -0.64546875 0.75835937 0 0 Z " fill="#130D49" transform="translate(253,271)"/>
<path d="M0 0 C2.9375 0.875 2.9375 0.875 4.9375 3.875 C4.75 6.4375 4.75 6.4375 3.9375 8.875 C0.9375 10.875 0.9375 10.875 -1.625 10.625 C-4.0625 9.875 -4.0625 9.875 -6.0625 7.875 C-6.4258156 5.04113833 -6.4193671 3.46977849 -4.9375 1 C-3.0625 -0.125 -3.0625 -0.125 0 0 Z " fill="#19124F" transform="translate(310.0625,298.125)"/>
<path d="M0 0 C1 1 1 1 1.25 4.4375 C1.1675 5.613125 1.085 6.78875 1 8 C-2 10 -2 10 -5.1875 9.625 C-6.5796875 9.315625 -6.5796875 9.315625 -8 9 C-9.32561852 2.61292897 -9.32561852 2.61292897 -7.9375 0 C-5.05932137 -1.48551155 -3.0547415 -0.79688909 0 0 Z " fill="#150E49" transform="translate(275,299)"/>
<path d="M0 0 C2.4375 0.8125 2.4375 0.8125 4.4375 2.8125 C4.75 5.8125 4.75 5.8125 4.4375 8.8125 C1.4375 10.8125 1.4375 10.8125 -1.6875 10.5 C-4.5625 9.8125 -4.5625 9.8125 -5.5625 8.8125 C-6.01941383 3.55799098 -6.01941383 3.55799098 -4.375 0.875 C-2.5625 -0.1875 -2.5625 -0.1875 0 0 Z " fill="#0C034D" transform="translate(341.5625,298.1875)"/>
<path d="M0 0 C3 0.25 3 0.25 5 2.25 C4.42307692 8.82692308 4.42307692 8.82692308 3 10.25 C0.0625 10.4375 0.0625 10.4375 -3 10.25 C-5 8.25 -5 8.25 -5.25 5.25 C-4.90584825 1.120179 -4.129821 0.34415175 0 0 Z " fill="#0F0940" transform="translate(322,271.75)"/>
<path d="M0 0 C0.33 0 0.66 0 1 0 C1.77015075 54.26600656 1.77015075 54.26600656 -4 64 C-5.125 61.1875 -5.125 61.1875 -6 58 C-4 55 -4 55 -3 54 C-2.76346477 51.47403741 -2.57826308 48.96892793 -2.4375 46.4375 C-2.39431641 45.72658203 -2.35113281 45.01566406 -2.30664062 44.28320312 C-2.20028223 42.52238088 -2.09961154 40.7612168 -2 39 C-1.34 39 -0.68 39 0 39 C0 26.13 0 13.26 0 0 Z " fill="#0E0A39" transform="translate(449,239)"/>
<path d="M0 0 C3 0.25 3 0.25 5 2.25 C5.25 5.25 5.25 5.25 5 8.25 C4.34 8.91 3.68 9.57 3 10.25 C-0.625 9.875 -0.625 9.875 -4 9.25 C-4.625 5.875 -4.625 5.875 -5 2.25 C-3 0.25 -3 0.25 0 0 Z " fill="#150E42" transform="translate(290,271.75)"/>
<path d="M0 0 C2.56780471 3.8415976 2.22688882 7.8139175 2.125 12.25 C2.11597656 12.99507813 2.10695312 13.74015625 2.09765625 14.5078125 C2.07418358 16.33868059 2.03831525 18.16938238 2 20 C0.68 20.33 -0.64 20.66 -2 21 C-2.02686553 19.02090602 -2.04633375 17.04171029 -2.0625 15.0625 C-2.07410156 13.96035156 -2.08570313 12.85820312 -2.09765625 11.72265625 C-2 9 -2 9 -1 8 C-0.76924918 6.65252916 -0.58846937 5.29622435 -0.4375 3.9375 C-0.293125 2.638125 -0.14875 1.33875 0 0 Z " fill="#18134C" transform="translate(148,264)"/>
<path d="M0 0 C2.31 0.33 4.62 0.66 7 1 C7 1.66 7 2.32 7 3 C8.010625 3.268125 9.02125 3.53625 10.0625 3.8125 C13.87327442 4.8935156 17.38875208 6.37862338 21 8 C21 8.66 21 9.32 21 10 C21.7425 10.144375 22.485 10.28875 23.25 10.4375 C25.52027739 10.90187492 27.75759479 11.41863569 30 12 C30 12.66 30 13.32 30 14 C22.64043089 12.07739924 16.11475515 9.31218027 9.375 5.8125 C8.46621094 5.34908203 7.55742187 4.88566406 6.62109375 4.40820312 C4.41016591 3.27946628 2.20337836 2.14338338 0 1 C0 0.67 0 0.34 0 0 Z " fill="#0D0938" transform="translate(150,433)"/>
<path d="M0 0 C1.60495567 0.11442461 3.20898119 0.24194694 4.8125 0.375 C5.70582031 0.44460938 6.59914063 0.51421875 7.51953125 0.5859375 C10 1 10 1 13 3 C13 3.66 13 4.32 13 5 C11.41870971 5.22331199 9.83478911 5.42804644 8.25 5.625 C6.92742187 5.79902344 6.92742187 5.79902344 5.578125 5.9765625 C2.77140122 6.00207817 1.36615134 5.44843844 -1 4 C-0.67 2.68 -0.34 1.36 0 0 Z " fill="#0C034D" transform="translate(284,257)"/>
<path d="M0 0 C4.75 0.75 4.75 0.75 7 3 C7.3125 6 7.3125 6 7 9 C4 11 4 11 0.8125 10.625 C-0.5796875 10.315625 -0.5796875 10.315625 -2 10 C-2.33 9.01 -2.66 8.02 -3 7 C-0.23723823 7.52268466 2.3260876 8.10869587 5 9 C5 7.02 5 5.04 5 3 C2.525 2.01 2.525 2.01 0 1 C0 0.67 0 0.34 0 0 Z " fill="#231E49" transform="translate(339,298)"/>
<path d="M0 0 C0.66 1.32 1.32 2.64 2 4 C-0.31 5.98 -2.62 7.96 -5 10 C-5.66 9.67 -6.32 9.34 -7 9 C-6.6875 7.0625 -6.6875 7.0625 -6 5 C-5.01 4.67 -4.02 4.34 -3 4 C-3.33 3.01 -3.66 2.02 -4 1 C-2.68 0.67 -1.36 0.34 0 0 Z " fill="#181250" transform="translate(261,274)"/>
<path d="M0 0 C1.32 0.66 2.64 1.32 4 2 C4.042721 3.66611905 4.04063832 5.33382885 4 7 C3 8 3 8 -0.0625 8.0625 C-1.031875 8.041875 -2.00125 8.02125 -3 8 C-3 4.42424104 -1.91159393 2.94704065 0 0 Z " fill="#160F4B" transform="translate(322,274)"/>
<path d="M0 0 C1.08557892 3.25995807 0.91310151 5.10542427 -0.21484375 8.328125 C-0.48876953 9.12734375 -0.76269531 9.9265625 -1.04492188 10.75 C-1.48674805 11.9875 -1.48674805 11.9875 -1.9375 13.25 C-2.22818359 14.09046875 -2.51886719 14.9309375 -2.81835938 15.796875 C-3.53621233 17.86805731 -4.26366119 19.93533262 -5 22 C-6.32 21.34 -7.64 20.68 -9 20 C-8.401875 19.525625 -7.80375 19.05125 -7.1875 18.5625 C-4.18538648 15.04573845 -3.2463898 11.3955522 -2 7 C-1.68869141 5.94039063 -1.68869141 5.94039063 -1.37109375 4.859375 C-0.90135817 3.24322182 -0.44867333 1.62212664 0 0 Z " fill="#0C0936" transform="translate(442,311)"/>
<path d="M0 0 C0.66 0.33 1.32 0.66 2 1 C2.1875 4.375 2.1875 4.375 2 8 C-1 10 -1 10 -4.1875 9.625 C-5.5796875 9.315625 -5.5796875 9.315625 -7 9 C-6.67 8.01 -6.34 7.02 -6 6 C-5.67 6.66 -5.34 7.32 -5 8 C-3.68 8 -2.36 8 -1 8 C-1.020625 6.865625 -1.04125 5.73125 -1.0625 4.5625 C-1 1 -1 1 0 0 Z " fill="#1C1646" transform="translate(274,299)"/>
<path d="M0 0 C0 0.99 0 1.98 0 3 C-1.62053812 4.38903267 -3.29705213 5.71332828 -5 7 C-6.68711423 8.6459651 -8.3545622 10.31237149 -10 12 C-11.33333333 13.33333333 -12.66666667 14.66666667 -14 16 C-14.66 15.67 -15.32 15.34 -16 15 C-5.62642369 4.44191344 -5.62642369 4.44191344 0 0 Z " fill="#13103E" transform="translate(120,105)"/>
<path d="M0 0 C0.66 0.33 1.32 0.66 2 1 C-0.97 5.29 -3.94 9.58 -7 14 C-7.33 13.01 -7.66 12.02 -8 11 C-7.525625 10.62875 -7.05125 10.2575 -6.5625 9.875 C-4.47794198 7.37353038 -4.35378509 5.18406582 -4 2 C-2.68 2 -1.36 2 0 2 C0 1.34 0 0.68 0 0 Z " fill="#0C0838" transform="translate(416,368)"/>
<path d="M0 0 C5.19210472 3.80304814 10.15609762 7.76158542 15 12 C12 12 12 12 10 11 C10 10.34 10 9.68 10 9 C9.443125 8.731875 8.88625 8.46375 8.3125 8.1875 C7.549375 7.795625 6.78625 7.40375 6 7 C4.6696875 6.319375 4.6696875 6.319375 3.3125 5.625 C0.65063719 3.75450181 0.57269174 3.05855149 0 0 Z " fill="#100C39" transform="translate(371,99)"/>
<path d="M0 0 C0.66 0.33 1.32 0.66 2 1 C2 2.65 2 4.3 2 6 C-0.31 6 -2.62 6 -5 6 C-5 5.01 -5 4.02 -5 3 C-2.625 1.25 -2.625 1.25 0 0 Z " fill="#0D0449" transform="translate(291,274)"/>
<path d="M0 0 C4.75 1.875 4.75 1.875 7 3 C7 3.66 7 4.32 7 5 C8.65 5.33 10.3 5.66 12 6 C12 6.66 12 7.32 12 8 C12.99 8.33 13.98 8.66 15 9 C15 9.66 15 10.32 15 11 C11.43503982 9.37879192 8.40991178 7.2405574 5.25 4.9375 C3.77273437 3.86822266 3.77273437 3.86822266 2.265625 2.77734375 C1.51796875 2.19082031 0.7703125 1.60429687 0 1 C0 0.67 0 0.34 0 0 Z " fill="#0E0933" transform="translate(121,413)"/>
<path d="M0 0 C0.33 0.66 0.66 1.32 1 2 C3.52733235 2.65555119 3.52733235 2.65555119 6 3 C3.63379989 5.61527381 1.057952 7.26440562 -2 9 C-2.20140476 5.37471432 -1.85776765 3.13498292 0 0 Z " fill="#151049" transform="translate(269,265)"/>
<path d="M0 0 C3.39417765 3.12621626 5.6062718 5.56541027 7 10 C0.27777778 7.55555556 0.27777778 7.55555556 -1 5 C-1 3 -1 3 0 0 Z " fill="#0D083C" transform="translate(410,139)"/>
<path d="M0 0 C1.89453125 0.6875 1.89453125 0.6875 4 2 C5.01171875 4.3125 5.01171875 4.3125 5.6875 7 C6.59310576 10.59411154 6.59310576 10.59411154 8 14 C5 13 5 13 3.61328125 10.56640625 C2.96939453 9.07947266 2.96939453 9.07947266 2.3125 7.5625 C1.87550781 6.57378906 1.43851562 5.58507812 0.98828125 4.56640625 C0 2 0 2 0 0 Z " fill="#11083D" transform="translate(66,339)"/>
<path d="M0 0 C0.66 0 1.32 0 2 0 C1.6875 2.375 1.6875 2.375 1 5 C-2 7 -2 7 -4.625 6.75 C-5.40875 6.5025 -6.1925 6.255 -7 6 C-7.33 5.34 -7.66 4.68 -8 4 C-5.69 4 -3.38 4 -1 4 C-0.67 2.68 -0.34 1.36 0 0 Z " fill="#221C4B" transform="translate(313,302)"/>
<path d="M0 0 C-1.24735567 0.6509259 -2.49801832 1.29551669 -3.75 1.9375 C-4.44609375 2.29714844 -5.1421875 2.65679687 -5.859375 3.02734375 C-9.45199936 4.65975883 -11.17563022 5.27478993 -15 4 C-13.06767179 3.13419713 -11.12892806 2.28270059 -9.1875 1.4375 C-8.10855469 0.96183594 -7.02960938 0.48617187 -5.91796875 -0.00390625 C-3 -1 -3 -1 0 0 Z " fill="#140E3C" transform="translate(181,72)"/>
<path d="M0 0 C1.74627478 2.61941217 2.38722388 4.03824877 3 7 C1.35 7 -0.3 7 -2 7 C-2.125 4.625 -2.125 4.625 -2 2 C-1.34 1.34 -0.68 0.68 0 0 Z " fill="#120C46" transform="translate(306,299)"/>
<path d="M0 0 C2.0625 0.4375 2.0625 0.4375 4 1 C4 1.66 4 2.32 4 3 C3.01 3 2.02 3 1 3 C1 3.99 1 4.98 1 6 C0.01 6 -0.98 6 -2 6 C-1.125 1.125 -1.125 1.125 0 0 Z " fill="#0A063E" transform="translate(338,299)"/>
<path d="M0 0 C2.125 0.375 2.125 0.375 4 1 C3 4 3 4 0.9375 5.1875 C0.298125 5.455625 -0.34125 5.72375 -1 6 C-1.625 4.125 -1.625 4.125 -2 2 C-1.34 1.34 -0.68 0.68 0 0 Z " fill="#140D4C" transform="translate(229,114)"/>
<path d="M0 0 C1.9453125 -0.29296875 1.9453125 -0.29296875 4.125 -0.1875 C5.40375 -0.125625 6.6825 -0.06375 8 0 C8 0.66 8 1.32 8 2 C4.7 2.33 1.4 2.66 -2 3 C-1.34 2.01 -0.68 1.02 0 0 Z " fill="#261F50" transform="translate(289,260)"/>
<path d="M0 0 C1.32 0.66 2.64 1.32 4 2 C2.35 4.31 0.7 6.62 -1 9 C-2.25541557 5.23375329 -1.37061958 3.62811066 0 0 Z " fill="#191349" transform="translate(251,285)"/>
<path d="M0 0 C0.33 0.99 0.66 1.98 1 3 C-1.97180943 4.89865603 -4.51460083 6.35455571 -8 7 C-5.42215154 4.35247996 -3.08351902 2.05567935 0 0 Z " fill="#100B3E" transform="translate(136,93)"/>
<path d="M0 0 C0.99 0 1.98 0 3 0 C2.67 2.97 2.34 5.94 2 9 C1.34 9 0.68 9 0 9 C0 6.03 0 3.06 0 0 Z " fill="#171142" transform="translate(223,331)"/>
<path d="M0 0 C0.33 0.99 0.66 1.98 1 3 C1.66 3 2.32 3 3 3 C2.67 3.99 2.34 4.98 2 6 C-0.475 5.01 -0.475 5.01 -3 4 C-2.67 3.01 -2.34 2.02 -2 1 C-1.34 0.67 -0.68 0.34 0 0 Z " fill="#0C0540" transform="translate(253,280)"/>
<path d="M0 0 C0.66 0 1.32 0 2 0 C0.7874262 3.72433382 -0.50859979 7.37802806 -2 11 C-2.33 11 -2.66 11 -3 11 C-3.39253254 6.55129785 -2.15305957 3.85756507 0 0 Z " fill="#0C0836" transform="translate(434,334)"/>
<path d="M0 0 C-0.33 1.32 -0.66 2.64 -1 4 C-2.65 4.33 -4.3 4.66 -6 5 C-6.33 4.34 -6.66 3.68 -7 3 C-2.25 0 -2.25 0 0 0 Z " fill="#171147" transform="translate(363,375)"/>
<path d="M0 0 C4.455 0.99 4.455 0.99 9 2 C9 2.66 9 3.32 9 4 C4.53159589 3.50351065 3.31012244 3.31012244 0 0 Z " fill="#0E0B3D" transform="translate(310,68)"/>
</svg>
