<?xml version="1.0" encoding="UTF-8"?>
<svg version="1.1" xmlns="http://www.w3.org/2000/svg" width="500" height="500">
<path d="M0 0 C0.74685059 0.31694824 1.49370117 0.63389648 2.26318359 0.96044922 C18.35470582 7.89378546 33.35028219 17.0200617 47 28 C47.99773437 28.7940625 48.99546875 29.588125 50.0234375 30.40625 C64.2432924 41.95088535 77.36954911 55.06117253 88 70 C88.48275391 70.67611328 88.96550781 71.35222656 89.46289062 72.04882812 C122.37150107 118.64471685 136.10210041 176.59552355 126.54345703 233.03613281 C123.42934445 250.01965787 118.78566828 266.12342203 112 282 C111.68305176 282.74685059 111.36610352 283.49370117 111.03955078 284.26318359 C104.08991571 300.39253363 94.91403514 315.25787547 84 329 C83.06414062 330.24136719 83.06414062 330.24136719 82.109375 331.5078125 C70.80677792 346.05879378 57.03704767 359.35307889 42 370 C41.41863281 370.41507812 40.83726562 370.83015625 40.23828125 371.2578125 C-7.60339752 405.08945519 -66.27389543 417.83395745 -124 408 C-157.82879277 401.81443761 -190.1754141 387.57066701 -217 366 C-217.98613281 365.21753906 -218.97226563 364.43507813 -219.98828125 363.62890625 C-241.46430724 346.23856325 -258.26489534 325.87146772 -272 302 C-272.36432129 301.3797998 -272.72864258 300.75959961 -273.10400391 300.12060547 C-301.18556584 252.0617334 -305.57438981 192.18812124 -291.7265625 139.04296875 C-289.16116268 129.75633974 -285.79672703 120.84681039 -282 112 C-281.48397217 110.79053711 -281.48397217 110.79053711 -280.95751953 109.55664062 C-270.88335781 86.31796826 -256.46066493 66.21575236 -239 48 C-238.49742676 47.47019531 -237.99485352 46.94039062 -237.47705078 46.39453125 C-209.65503763 17.19398893 -173.03902311 -2.46432025 -134 -12 C-133.32710937 -12.16580566 -132.65421875 -12.33161133 -131.9609375 -12.50244141 C-88.49357246 -22.91090768 -40.83000899 -17.45079434 0 0 Z " fill="#0B0447" transform="translate(335,53)"/>
<path d="M0 0 C0.35191406 0.75506836 0.70382813 1.51013672 1.06640625 2.28808594 C2.40813374 5.15458338 3.75864352 8.01674329 5.11474609 10.87646484 C5.97500479 12.69710061 6.82554294 14.52231945 7.67578125 16.34765625 C13.50295197 28.60480846 20.47095557 39.30722628 30 49 C30.70898438 49.721875 31.41796875 50.44375 32.1484375 51.1875 C42.91628378 61.44999609 55.92963312 64.67374172 70 68 C70.38790967 60.38995166 70.38790967 60.38995166 69 53 C67.37277587 48.11832761 67.85140478 43.10176908 68 38 C72.11568928 37.76975165 74.22127498 37.73860792 77.3125 40.5 C81.63534059 43.46615962 85.66972876 43.49571511 90.75 43.5 C91.49548096 43.50580078 92.24096191 43.51160156 93.0090332 43.51757812 C97.42114975 43.41797057 99.65657743 42.78858736 103 40 C105.578125 39.48828125 105.578125 39.48828125 108.25 39.3125 C109.58804688 39.21388672 109.58804688 39.21388672 110.953125 39.11328125 C111.96632813 39.05720703 111.96632813 39.05720703 113 39 C113.27791948 44.50692308 113.46138773 49.42728833 111.4375 54.625 C109.58638026 59.40850102 110.12567248 62.99248785 111 68 C132.16663206 64.01815833 148.58231381 55.82008268 161.5625 38.1875 C169.46438796 26.1298043 175.58031025 12.88512551 182 0 C188.08395202 -0.27436086 192.82984287 0.50195035 198.5625 2.5 C199.34189941 2.76772217 200.12129883 3.03544434 200.92431641 3.3112793 C224.28476987 11.65022449 243.87270232 26.90028449 254.6875 49.53125 C258.7762143 59.09884145 261.01774372 68.82053096 263 79 C260.28051764 78.52009135 257.82101981 77.93344962 255.2265625 76.96875 C246.49966766 74.3485685 235.73399781 74.59512841 227.4375 78.375 C216.53977427 84.83847871 210.74374736 95.13852678 205 106 C204.35417969 105.7834375 203.70835937 105.566875 203.04296875 105.34375 C191.30856208 101.87640138 177.59611851 100.30578065 166.3125 105.9375 C156.25215261 111.81189865 151.6413301 118.39821956 148.0078125 129.375 C147 132 147 132 145 133 C143.32571563 132.24636327 141.65169504 131.49213079 139.97949219 130.73388672 C136.75280134 129.5376074 133.51960316 129.5105835 130.125 129.5625 C129.07119141 129.57494751 129.07119141 129.57494751 127.99609375 129.58764648 C122.17358069 129.77666291 117.82571754 130.76015334 113 134 C112.01 134.65935547 112.01 134.65935547 111 135.33203125 C101.41633624 142.7256781 95.46064782 155.01649532 91 166 C90.01 165.67 89.02 165.34 88 165 C87.296875 163.3203125 87.296875 163.3203125 86.75 161.125 C83.41689096 150.28380514 75.03884347 138.30189718 65.1875 132.4375 C57.46577788 128.95515473 47.40099641 128.71689035 39.171875 130.671875 C36.82416602 131.5259132 36.82416602 131.5259132 34 133 C33.68546875 132.13117188 33.3709375 131.26234375 33.046875 130.3671875 C28.56324413 118.29379595 23.46834393 109.8693473 11.625 104.0625 C0.9447459 99.95053432 -11.54873528 100.59946748 -22 105 C-22.99 105 -23.98 105 -25 105 C-25.36351562 104.2265625 -25.72703125 103.453125 -26.1015625 102.65625 C-28.93192443 96.79232067 -31.68904364 91.64215072 -36.09375 86.81640625 C-37 85 -37 85 -36.53125 82.8125 C-34.33832153 78.78467219 -31.69618066 75.14156894 -29 71.4375 C-27.91413257 69.93802977 -26.83070912 68.43678597 -25.75 66.93359375 C-25.03070313 65.9444397 -25.03070313 65.9444397 -24.296875 64.93530273 C-23.01244287 63.01856827 -21.98405615 61.08444677 -21 59 C-21.37769531 59.40089844 -21.75539062 59.80179688 -22.14453125 60.21484375 C-27.37959876 65.62155281 -33.09992085 70.33776288 -39 75 C-39.67675781 75.6084375 -40.35351562 76.216875 -41.05078125 76.84375 C-43 78 -43 78 -45.21875 77.671875 C-45.9715625 77.36765625 -46.724375 77.0634375 -47.5 76.75 C-58.41079103 72.49030761 -70.0783672 72.6827428 -81 77 C-79.92690893 55.89587559 -66.01883441 35.93428094 -51 22 C-48.45664702 19.89754772 -45.82405208 17.95976552 -43.125 16.0625 C-42.39684082 15.54961426 -41.66868164 15.03672852 -40.91845703 14.50830078 C-28.49458512 6.00467313 -15.2727943 -0.55313943 0 0 Z " fill="#010101" transform="translate(156,166)"/>
<path d="M0 0 C0.45826172 1.00740234 0.45826172 1.00740234 0.92578125 2.03515625 C2.25066176 4.92750103 3.59049662 7.81259584 4.93408203 10.69628906 C5.69640384 12.34385401 6.45181757 13.99462235 7.20263672 15.64746094 C12.79374909 27.94410899 18.38244972 39.53375228 27 50 C27.61875 50.77214844 28.2375 51.54429687 28.875 52.33984375 C34.62484411 58.79602647 42.35144735 62.2553961 50 66 C49.67 65.01 49.34 64.02 49 63 C48.91760831 61.15389468 48.89256641 59.30494836 48.90234375 57.45703125 C48.90556641 56.38388672 48.90878906 55.31074219 48.91210938 54.20507812 C48.92048828 53.08552734 48.92886719 51.96597656 48.9375 50.8125 C48.94201172 49.68134766 48.94652344 48.55019531 48.95117188 47.38476562 C48.96296502 44.58979073 48.9794235 41.7949218 49 39 C66.76557355 38.30331084 66.76557355 38.30331084 74.5703125 42.09765625 C82.35335552 44.98814329 89.72007647 43.1766939 97 40 C104.3291323 39.2867276 110.90553518 40.27429267 118 42 C118.02901394 45.4374823 118.04680335 48.87493312 118.0625 52.3125 C118.07087891 53.28896484 118.07925781 54.26542969 118.08789062 55.27148438 C118.09111328 56.20927734 118.09433594 57.14707031 118.09765625 58.11328125 C118.10289307 58.97735596 118.10812988 59.84143066 118.11352539 60.73168945 C118 63 118 63 117 66 C144.76245086 52.98514786 155.83825685 28.45935787 167 1 C193.32453472 -0.34423156 218.42777082 11.8530936 238 29 C256.98521275 47.07220393 264.46277244 70.92502179 268.92016602 95.99047852 C269.31930462 98.225605 269.7342677 100.45743287 270.15039062 102.68945312 C270.40978855 104.11962251 270.66828738 105.54995533 270.92578125 106.98046875 C271.15692627 108.25817139 271.38807129 109.53587402 271.6262207 110.85229492 C272 114 272 114 271 117 C270.00987915 116.33411865 270.00987915 116.33411865 268.99975586 115.65478516 C265.98529522 113.63527887 262.96157703 111.63007467 259.9375 109.625 C258.89916016 108.92632812 257.86082031 108.22765625 256.79101562 107.5078125 C247.99772495 101.70144913 240.74506334 98.54041047 230 100 C221.1521674 103.23165517 215.01432624 111.50991744 211.04907227 119.69384766 C208.72766733 124.70219447 206.66775771 129.72956181 205 135 C199.64222107 133.265177 194.44356014 131.21723782 189.21875 129.12109375 C186.10989258 128.03827569 183.25715939 127.42833877 180 127 C179.29617188 126.89816406 178.59234375 126.79632813 177.8671875 126.69140625 C170.64944475 126.22437584 164.88256649 128.98304745 159 133 C152.4277199 139.17153131 150.76263861 148.64614249 148.53710938 157.05615234 C147.79548477 159.7401592 146.9113514 162.36950845 146 165 C142.29429782 162.95808247 138.77607013 160.89403436 135.375 158.375 C130.13190403 154.59671577 125.53394468 153.12880738 119 154 C111.21411465 155.68717231 107.43641022 160.499384 103.00390625 166.8359375 C99.87982305 171.76870045 97.26849462 176.83969876 95.09375 182.2578125 C93.05155782 187.02879595 90.94504437 189.47175189 86.0859375 191.50390625 C82.50159844 192.35636142 80.27281443 191.54378039 77 190 C73.36071813 187.29169721 71.77229561 184.71980056 70.25 180.5625 C68.52882025 175.90272069 66.27553921 171.86369133 63.625 167.6875 C63.26180664 167.10105713 62.89861328 166.51461426 62.52441406 165.91040039 C58.69215228 160.00443671 54.09251396 155.52975791 47 154 C38.55451709 152.44913288 32.83594209 156.38005072 26 161 C25.26394531 161.57105469 24.52789062 162.14210938 23.76953125 162.73046875 C22 164 22 164 20 164 C18.16588333 158.68106165 16.56547012 153.37732414 15.125 147.9375 C12.63560698 139.25270031 10.02620859 133.59978963 2.0625 129.0078125 C-5.20479714 125.45674685 -12.0593231 124.68550798 -19.98046875 126.79296875 C-23.43116806 128.0352205 -26.77184512 129.43386169 -30.1015625 130.96875 C-34.51938533 132.99906858 -34.51938533 132.99906858 -37.015625 133.00390625 C-40.20503904 131.39036411 -40.72384791 128.32607229 -41.8125 125.125 C-45.62660861 114.87381956 -50.15262168 105.60872417 -60 100 C-63.41322068 98.86225977 -66.15374474 98.79630372 -69.75 98.75 C-70.94109375 98.72421875 -72.1321875 98.6984375 -73.359375 98.671875 C-81.2164117 99.38001994 -86.92344348 103.75863886 -93.25 108.125 C-94.83640365 109.21405846 -96.42485994 110.30013461 -98.015625 111.3828125 C-98.70946289 111.86121582 -99.40330078 112.33961914 -100.11816406 112.83251953 C-102 114 -102 114 -105 115 C-101.89732965 85.68671143 -94.30789502 58.87304576 -75 36 C-74.54367188 35.39800781 -74.08734375 34.79601562 -73.6171875 34.17578125 C-59.99630686 16.68069803 -34.29294379 3.42375476 -12.8125 0.3125 C-8.52476403 -0.03895377 -4.29841379 -0.08955029 0 0 Z M-66.3515625 43.04296875 C-76.56940928 55.17363519 -88.55069237 73.64683089 -88 90 C-87.45214844 89.7834375 -86.90429688 89.566875 -86.33984375 89.34375 C-75.623467 85.57994939 -64.69712467 85.39669759 -54.3671875 90.3203125 C-51.1549754 91.24263083 -49.89737184 90.60058257 -47 89 C-44.54691067 87.08644011 -44.54691067 87.08644011 -42.1875 84.8125 C-41.32640625 84.01585937 -40.4653125 83.21921875 -39.578125 82.3984375 C-38.72734375 81.60695313 -37.8765625 80.81546875 -37 80 C-35.48541254 78.63885114 -33.96523024 77.28388097 -32.4375 75.9375 C-31.79683594 75.36902344 -31.15617187 74.80054688 -30.49609375 74.21484375 C-29 73 -29 73 -28 73 C-28.51385254 73.72533936 -28.51385254 73.72533936 -29.03808594 74.46533203 C-30.60957382 76.68462096 -32.17979504 78.90480322 -33.75 81.125 C-34.55824219 82.26582031 -34.55824219 82.26582031 -35.3828125 83.4296875 C-38.31747706 87.58116419 -41.20496953 91.75318185 -44 96 C-41.7794123 100.74453438 -38.92207209 105.1393252 -36.18945312 109.59960938 C-34.50496459 112.37584499 -33.03053347 114.9083996 -32 118 C-30.3743193 117.69106068 -28.74947252 117.3777305 -27.125 117.0625 C-25.76761719 116.80146484 -25.76761719 116.80146484 -24.3828125 116.53515625 C-22.00043683 116.10036299 -22.00043683 116.10036299 -20 115 C-6.97315599 114.04012728 3.87797544 114.77084377 14.4375 123.3125 C21.14010684 129.76532025 24.12988101 137.27740374 27 146 C27.99 145.505 28.98 145.01 30 144.5 C37.35597762 141.74150839 47.831833 141.6745499 55.375 143.9375 C67.53158449 149.80251883 76.14231775 163.16312999 80.78515625 175.49609375 C81.18605469 176.65238281 81.58695313 177.80867187 82 179 C82.99 178.67 83.98 178.34 85 178 C86.00044422 176.0436389 86.00044422 176.0436389 86.75 173.625 C90.9204506 162.52494136 98.40897968 150.8588623 109 145 C113.65267751 143.12947508 117.90724576 142.6498655 122.875 142.6875 C123.93074219 142.68943359 123.93074219 142.68943359 125.0078125 142.69140625 C130.32765727 142.78992189 134.2728306 143.6364153 139 146 C139.43699219 144.83984375 139.43699219 144.83984375 139.8828125 143.65625 C143.96123232 133.2934726 148.48537457 125.99989439 158 120 C158.6084375 119.58492188 159.216875 119.16984375 159.84375 118.7421875 C169.25303517 113.40279155 183.10205822 114.99660649 193.1875 117.5 C194.79890746 117.97614776 196.40690018 118.46578689 198 119 C198.70962891 117.65808594 198.70962891 117.65808594 199.43359375 116.2890625 C205.36560527 105.32548839 211.7000024 95.33435385 223.48046875 89.99609375 C231.6985634 87.67021791 241.36269613 87.40081043 249.359375 90.59765625 C252.87495968 92.39506655 252.87495968 92.39506655 256 91 C250.65915278 65.33251658 241.10907965 43.92717713 218.75 28.75 C205.78492814 20.29494932 190.73650597 12.57560664 175 13 C174.29037109 14.43666016 174.29037109 14.43666016 173.56640625 15.90234375 C171.78217859 19.50326452 169.97856872 23.0941622 168.16748047 26.68164062 C167.4072348 28.19132128 166.65084627 29.70295251 165.89892578 31.21679688 C155.81926171 51.45796261 142.9643585 68.87191887 121 77 C115.41432616 78.70896387 109.7363289 79.92088862 104 81 C102.9251447 73.83861471 103.01262764 69.69171408 106 63 C106.26045492 59.31856986 106.17987599 55.68412679 106 52 C104.4156683 52.08768248 102.83246433 52.19587329 101.25 52.3125 C100.36828125 52.37050781 99.4865625 52.42851562 98.578125 52.48828125 C95.95057913 52.79599466 95.95057913 52.79599466 94.1875 54.51171875 C90.91052018 56.74123538 87.58081405 56.52980856 83.75 56.5 C82.60374146 56.4990332 82.60374146 56.4990332 81.43432617 56.49804688 C76.26227874 56.36081913 72.70798258 55.63988519 68.73828125 52.09375 C66.18586703 50.48773656 63.94232032 50.83539467 61 51 C60.61209033 58.61004834 60.61209033 58.61004834 62 66 C63.62722413 70.88167239 63.14859522 75.89823092 63 81 C45.53265305 76.87068995 32.72754539 71.87597158 20 59 C19.01386719 58.02933594 19.01386719 58.02933594 18.0078125 57.0390625 C6.46540519 44.85836538 -0.06173004 27.99221217 -7 13 C-29.17179269 12.41172986 -51.5239833 27.14702685 -66.3515625 43.04296875 Z " fill="#F8F8F8" transform="translate(163,153)"/>
<path d="M0 0 C2.475 0.99 2.475 0.99 5 2 C5 2.66 5 3.32 5 4 C5.58652344 4.26683594 6.17304688 4.53367188 6.77734375 4.80859375 C9.69347331 6.37172119 11.88256157 8.44313515 14.31640625 10.66015625 C16.07218444 12.21478916 16.07218444 12.21478916 19 13 C22.80067258 16.38978906 25.72882719 20.20246982 28.66796875 24.328125 C29.91356882 26.1321474 29.91356882 26.1321474 32 27 C33.74839516 29.65756064 34.99127482 31.97382445 36 35 C36.66 35 37.32 35 38 35 C38.0928125 36.485 38.0928125 36.485 38.1875 38 C38.62154997 41.16304054 39.56436039 43.08517523 41.390625 45.6875 C44.15139006 49.97268966 45.43579844 54.06038772 46.5625 59 C46.76520508 59.84288574 46.96791016 60.68577148 47.17675781 61.55419922 C49.50143426 71.56777031 51.07030743 81.72667347 52.59863281 91.88720703 C52.90925901 94.04554061 52.90925901 94.04554061 54 96 C54.039992 97.99960012 54.04346799 100.00047242 54 102 C50.6076681 100.8080996 48.20312809 99.87973287 46 97 C45.18798828 93.89990234 45.18798828 93.89990234 44.5703125 90.0859375 C44.33289203 88.67894715 44.09542273 87.27196504 43.85791016 85.86499023 C43.73861145 85.13110077 43.61931274 84.3972113 43.49639893 83.64108276 C42.87627579 79.85741446 42.20593167 76.08286232 41.53125 72.30859375 C41.39981598 71.57332962 41.26838196 70.83806549 41.13296509 70.08052063 C36.02248937 41.8950797 22.70358918 18.49476567 -1 2 C-0.67 1.34 -0.34 0.68 0 0 Z " fill="#05050B" transform="translate(388,170)"/>
<path d="M0 0 C0 0.66 0 1.32 0 2 C-0.74765625 2.04898437 -1.4953125 2.09796875 -2.265625 2.1484375 C-3.74289062 2.26058594 -3.74289062 2.26058594 -5.25 2.375 C-6.22453125 2.44460938 -7.1990625 2.51421875 -8.203125 2.5859375 C-10.89633189 2.98465249 -12.66963279 3.63507063 -15 5 C-15 5.66 -15 6.32 -15 7 C-16.32 7.33 -17.64 7.66 -19 8 C-19.33 9.32 -19.66 10.64 -20 12 C-20.66 12 -21.32 12 -22 12 C-22.33 14.64 -22.66 17.28 -23 20 C-23.66 20 -24.32 20 -25 20 C-25 21.32 -25 22.64 -25 24 C-25.66 24 -26.32 24 -27 24 C-26.979375 24.969375 -26.95875 25.93875 -26.9375 26.9375 C-27 30 -27 30 -28 31 C-28.23075082 32.34747084 -28.41153063 33.70377565 -28.5625 35.0625 C-28.706875 36.361875 -28.85125 37.66125 -29 39 C-31.57930034 40.01329656 -32.68448354 40.11938461 -35.3125 39.125 C-37 37 -37 37 -37.0625 33.25 C-35.50272921 23.71980049 -32.5706053 11.50887407 -25 5 C-16.68926194 -0.4969596 -9.62818816 -2.60047046 0 0 Z " fill="#08080B" transform="translate(347,280)"/>
<path d="M0 0 C-1.20094511 3.60283532 -2.0093846 3.82960674 -5.1875 5.6875 C-12.2937518 10.25176983 -16.07490874 16.19975665 -19 24 C-19.66 24 -20.32 24 -21 24 C-21.0825 24.66 -21.165 25.32 -21.25 26 C-22.36470429 30.45881718 -23.87019182 35.55099443 -27.80859375 38.23046875 C-30.41496812 39.14571964 -32.4941344 39.19752278 -35.25 39.125 C-36.58804688 39.09792969 -36.58804688 39.09792969 -37.953125 39.0703125 C-38.62859375 39.04710937 -39.3040625 39.02390625 -40 39 C-38.37660195 37.29115995 -36.70680947 35.62553283 -35 34 C-34.34 34 -33.68 34 -33 34 C-32.7525 33.360625 -32.505 32.72125 -32.25 32.0625 C-22.49526814 8.16340694 -22.49526814 8.16340694 -12.1875 1.0625 C-8.03917171 -0.3202761 -4.32981552 -0.25978893 0 0 Z " fill="#06060A" transform="translate(288,307)"/>
<path d="M0 0 C1.98 0 3.96 0 6 0 C6.39832031 1.09699219 6.79664063 2.19398438 7.20703125 3.32421875 C7.74192112 4.77874382 8.27709225 6.23316548 8.8125 7.6875 C9.07353516 8.40873047 9.33457031 9.12996094 9.60351562 9.87304688 C11.07672297 13.85616304 12.66803841 17.42255892 15 21 C16.83383719 24.18508565 17 25.08299202 17 29 C17.66 29 18.32 29 19 29 C20.40234375 31.01171875 20.40234375 31.01171875 21.9375 33.6875 C22.44152344 34.55761719 22.94554687 35.42773438 23.46484375 36.32421875 C23.97144531 37.20722656 24.47804687 38.09023437 25 39 C25.83724609 40.33998047 25.83724609 40.33998047 26.69140625 41.70703125 C28 44 28 44 28 46 C28.556875 46.226875 29.11375 46.45375 29.6875 46.6875 C32.64187072 48.36430501 34.63102343 50.57324352 37 53 C37.9075 53.721875 38.815 54.44375 39.75 55.1875 C42 57 42 57 43 59 C45.01669827 60.13350534 45.01669827 60.13350534 47 61 C44 62 44 62 41.65234375 61.13671875 C23.95557201 51.68995283 14.89077049 35.38449598 6.4375 17.9375 C5.64980225 16.3131604 5.64980225 16.3131604 4.84619141 14.65600586 C2.5115805 9.70432781 0.72438239 5.46579437 0 0 Z " fill="#05050A" transform="translate(165,156)"/>
<path d="M0 0 C0 0.66 0 1.32 0 2 C-0.92619141 2.07734375 -0.92619141 2.07734375 -1.87109375 2.15625 C-9.54106782 3.1835829 -14.12189288 6.00764898 -19 12 C-24.09792384 19.65800689 -27.96952089 28.01089976 -30 37 C-32.875 36.75 -32.875 36.75 -36 36 C-37.3203125 34.3046875 -37.3203125 34.3046875 -38 32 C-34.74245106 19.37699785 -26.77179643 7.5266108 -16.1875 0 C-11.30065025 -1.53312933 -4.72295247 -2.36147623 0 0 Z " fill="#09090B" transform="translate(406,253)"/>
<path d="M0 0 C0.98484375 0.00902344 1.9696875 0.01804688 2.984375 0.02734375 C4.10585937 0.04474609 4.10585937 0.04474609 5.25 0.0625 C5.25 0.7225 5.25 1.3825 5.25 2.0625 C4.49976562 2.34222656 3.74953125 2.62195313 2.9765625 2.91015625 C-4.39137971 5.79608827 -10.46001684 9.29341087 -16.75 14.0625 C-23.50438596 19.0625 -23.50438596 19.0625 -25.75 19.0625 C-26.234375 15.9296875 -26.234375 15.9296875 -25.75 12.0625 C-23.51129516 9.57860368 -20.82886211 7.93963259 -18 6.1875 C-17.27039063 5.7028125 -16.54078125 5.218125 -15.7890625 4.71875 C-10.33014285 1.16548958 -6.56866147 -0.07819835 0 0 Z " fill="#05050C" transform="translate(91.75,250.9375)"/>
<path d="M0 0 C2.31 0.33 4.62 0.66 7 1 C6.67 7.27 6.34 13.54 6 20 C0 23 0 23 -2 23 C-1.34 15.41 -0.68 7.82 0 0 Z " fill="#030207" transform="translate(282,196)"/>
<path d="M0 0 C1.05445313 -0.00257813 2.10890625 -0.00515625 3.1953125 -0.0078125 C5.875 0.125 5.875 0.125 7.875 1.125 C7.875 1.785 7.875 2.445 7.875 3.125 C6.80121094 3.31835938 5.72742188 3.51171875 4.62109375 3.7109375 C3.18486267 3.97377718 1.7486666 4.23680824 0.3125 4.5 C-0.39197266 4.62632812 -1.09644531 4.75265625 -1.82226562 4.8828125 C-6.35214697 5.71781367 -10.71530133 6.79223956 -15.125 8.125 C-15.125 8.785 -15.125 9.445 -15.125 10.125 C-16.775 10.125 -18.425 10.125 -20.125 10.125 C-20.455 8.805 -20.785 7.485 -21.125 6.125 C-19.37697854 5.30825204 -17.62649811 4.49676549 -15.875 3.6875 C-14.90046875 3.23503906 -13.9259375 2.78257812 -12.921875 2.31640625 C-8.43275343 0.40414078 -4.89110262 -0.01201745 0 0 Z " fill="#131418" transform="translate(152.125,277.875)"/>
<path d="M0 0 C0.99 0.66 1.98 1.32 3 2 C2.10861328 2.31130859 2.10861328 2.31130859 1.19921875 2.62890625 C-5.81786067 5.23712084 -11.81244925 8.81222801 -18 13 C-18.99 12.01 -19.98 11.02 -21 10 C-15.2292676 2.53078962 -9.79145537 -1.43608012 0 0 Z " fill="#030309" transform="translate(210,306)"/>
<path d="M0 0 C0.33 0 0.66 0 1 0 C0.97643433 1.5005896 0.97643433 1.5005896 0.95239258 3.03149414 C0.88530276 7.70837067 0.8429518 12.38524859 0.8125 17.0625 C0.80700134 17.90279755 0.80150269 18.74309509 0.7958374 19.6088562 C0.74588024 31.01014496 1.1510432 42.07962191 3.10864258 53.34594727 C3.25068115 54.18182373 3.39271973 55.0177002 3.5390625 55.87890625 C3.67521973 56.5860376 3.81137695 57.29316895 3.95166016 58.02172852 C4.0120385 60.49266659 3.24152855 61.89729729 2 64 C-1.36735354 42.88239455 -2.64373074 21.29125481 0 0 Z " fill="#0E0938" transform="translate(37,225)"/>
<path d="M0 0 C2.31 0.66 4.62 1.32 7 2 C5.78515625 3.5390625 5.78515625 3.5390625 4 5 C1.87109375 4.8984375 1.87109375 4.8984375 -0.5625 4.375 C-6.06029464 3.59190737 -9.25699266 5.13499415 -13.96875 7.87109375 C-16 9 -16 9 -18 9 C-18.309375 9.78375 -18.61875 10.5675 -18.9375 11.375 C-20 14 -20 14 -21 16 C-21.66 16 -22.32 16 -23 16 C-22.67 14.68 -22.34 13.36 -22 12 C-21.34 12 -20.68 12 -20 12 C-19.67 10.68 -19.34 9.36 -19 8 C-17.68 7.67 -16.36 7.34 -15 7 C-15 6.34 -15 5.68 -15 5 C-12.72880304 2.76665633 -11.39706651 2.04159216 -8.203125 1.70703125 C-7.22859375 1.74183594 -6.2540625 1.77664063 -5.25 1.8125 C-4.26515625 1.83957031 -3.2803125 1.86664063 -2.265625 1.89453125 C-1.14414062 1.94673828 -1.14414062 1.94673828 0 2 C0 1.34 0 0.68 0 0 Z " fill="#090431" transform="translate(347,280)"/>
<path d="M0 0 C0.33 1.32 0.66 2.64 1 4 C0.34 4 -0.32 4 -1 4 C-1 5.32 -1 6.64 -1 8 C-1.66 8 -2.32 8 -3 8 C-2.979375 8.969375 -2.95875 9.93875 -2.9375 10.9375 C-3 14 -3 14 -4 15 C-4.23075082 16.34747084 -4.41153063 17.70377565 -4.5625 19.0625 C-4.706875 20.361875 -4.85125 21.66125 -5 23 C-6.75 23.75 -6.75 23.75 -9 24 C-11.25 22.0625 -11.25 22.0625 -13 20 C-11.02 20.33 -9.04 20.66 -7 21 C-7.04125 20.05125 -7.0825 19.1025 -7.125 18.125 C-7 15 -7 15 -5 13 C-4.4322041 10.93489938 -4.4322041 10.93489938 -4.0625 8.625 C-3.3464029 5.0674296 -2.57025209 2.68708173 0 0 Z " fill="#020119" transform="translate(323,296)"/>
<path d="M0 0 C0.78246094 -0.01417969 1.56492188 -0.02835937 2.37109375 -0.04296875 C4.5625 0.1875 4.5625 0.1875 7.5625 2.1875 C6.00469668 2.86506882 4.44099904 3.52909457 2.875 4.1875 C1.56982422 4.744375 1.56982422 4.744375 0.23828125 5.3125 C-2.4947002 6.20620488 -4.58450934 6.35199676 -7.4375 6.1875 C-7.0625 3.75 -7.0625 3.75 -6.4375 1.1875 C-4.0978331 0.01766655 -2.60358473 0.0213759 0 0 Z " fill="#0A0A11" transform="translate(205.4375,305.8125)"/>
<path d="M0 0 C3.35573175 2.81417274 6.62363245 5.61487971 9.6875 8.75 C11.76304007 10.76944439 13.34651371 11.91895003 16 13 C13 14 13 14 10.37109375 12.99609375 C2.3933661 8.75759397 2.3933661 8.75759397 0.3125 4.75 C0 2 0 2 0 0 Z " fill="#0A0A1B" transform="translate(196,204)"/>
<path d="M0 0 C-17.14893617 8.76595745 -17.14893617 8.76595745 -26 12 C-26 11.34 -26 10.68 -26 10 C-23.4385343 7.70351351 -22.52032428 7 -19 7 C-18.67 6.34 -18.34 5.68 -18 5 C-16.02 5 -14.04 5 -12 5 C-12 4.34 -12 3.68 -12 3 C-10.3789897 2.30314502 -8.75303934 1.61777139 -7.125 0.9375 C-6.22007812 0.55464844 -5.31515625 0.17179687 -4.3828125 -0.22265625 C-2 -1 -2 -1 0 0 Z " fill="#0A0735" transform="translate(353,438)"/>
<path d="M0 0 C0.66 0 1.32 0 2 0 C2 0.66 2 1.32 2 2 C2.66 2 3.32 2 4 2 C4.268125 3.134375 4.53625 4.26875 4.8125 5.4375 C5.4003125 7.2009375 5.4003125 7.2009375 6 9 C6.99 9.33 7.98 9.66 9 10 C9.73046875 11.84765625 9.73046875 11.84765625 10.1875 14.0625 C10.34605469 14.79597656 10.50460938 15.52945312 10.66796875 16.28515625 C10.77753906 16.85105469 10.88710937 17.41695313 11 18 C11.66 18 12.32 18 13 18 C13.33 19.65 13.66 21.3 14 23 C9.69887353 19.33198327 7.39614775 14.70864256 4.75 9.8125 C4.29109375 8.98041016 3.8321875 8.14832031 3.359375 7.29101562 C0 1.15715681 0 1.15715681 0 0 Z " fill="#0E0838" transform="translate(58,345)"/>
<path d="M0 0 C0 0.33 0 0.66 0 1 C-20.53191489 4.57446809 -20.53191489 4.57446809 -30 4 C-29.67 3.34 -29.34 2.68 -29 2 C-24.3518277 1.03163077 -19.93148423 0.96697475 -15.19921875 1.03125 C-10.07595323 0.95845049 -5.16265839 -0.1259185 0 0 Z " fill="#100A3C" transform="translate(294,459)"/>
<path d="M0 0 C5.31027254 1.46032495 9.46330032 3.98320986 14 7 C13.67 7.99 13.34 8.98 13 10 C8.05 7.36 3.1 4.72 -2 2 C-1.34 1.34 -0.68 0.68 0 0 Z " fill="#1A1635" transform="translate(374,162)"/>
<path d="M0 0 C0.66 0.33 1.32 0.66 2 1 C2 1.66 2 2.32 2 3 C2.99 3 3.98 3 5 3 C5 3.66 5 4.32 5 5 C6.32 5 7.64 5 9 5 C10.70779973 6.62449243 12.37550757 8.29220027 14 10 C14.99 10.33 15.98 10.66 17 11 C17 11.66 17 12.32 17 13 C12.84999494 11.51400561 9.36963518 9.47679376 5.6875 7.0625 C4.61886719 6.37285156 3.55023438 5.68320312 2.44921875 4.97265625 C1.64097656 4.32167969 0.83273438 3.67070312 0 3 C0 2.01 0 1.02 0 0 Z " fill="#0D0939" transform="translate(123,420)"/>
<path d="M0 0 C2.475 0.99 2.475 0.99 5 2 C5 2.66 5 3.32 5 4 C5.598125 4.268125 6.19625 4.53625 6.8125 4.8125 C8.97224808 5.98493467 10.35790256 7.19369282 12 9 C11.01 9.33 10.02 9.66 9 10 C6.51953125 8.34765625 6.51953125 8.34765625 3.8125 6.0625 C2.91144531 5.31097656 2.01039063 4.55945313 1.08203125 3.78515625 C0.39496094 3.19605469 -0.29210937 2.60695312 -1 2 C-0.67 1.34 -0.34 0.68 0 0 Z " fill="#0A081D" transform="translate(388,170)"/>
<path d="M0 0 C2.64 1.32 5.28 2.64 8 4 C7.67 4.66 7.34 5.32 7 6 C6.0925 5.67 5.185 5.34 4.25 5 C-1.06183796 3.44478146 -6.52020695 3.83803567 -12 4 C-9.1004339 2.34123921 -7.08364791 1.7638784 -3.75 1.875 C-1.89375 1.936875 -1.89375 1.936875 0 2 C0 1.34 0 0.68 0 0 Z " fill="#0E0936" transform="translate(160,279)"/>
<path d="M0 0 C1.43410153 3.78819273 0.51009497 6.06521279 -0.9375 9.75 C-1.31777344 10.73484375 -1.69804687 11.7196875 -2.08984375 12.734375 C-2.39019531 13.48203125 -2.69054687 14.2296875 -3 15 C-3.94616328 11.57015811 -4 8.55824425 -4 5 C-4.33 4.34 -4.66 3.68 -5 3 C-3.35 3 -1.7 3 0 3 C0 2.01 0 1.02 0 0 Z " fill="#090539" transform="translate(454,310)"/>
<path d="M0 0 C0 1.98 0 3.96 0 6 C1.65 5.34 3.3 4.68 5 4 C4.67 5.32 4.34 6.64 4 8 C0.65626525 7.44271087 -2.03312999 6.64826111 -5 5 C-5 4.01 -5 3.02 -5 2 C-2 0 -2 0 0 0 Z " fill="#0E0838" transform="translate(66,264)"/>
<path d="M0 0 C0.99 0 1.98 0 3 0 C3.25515919 7.52719602 2.28297723 14.58851545 1 22 C0.67 22 0.34 22 0 22 C-0.0272616 19.95840905 -0.04651345 17.91671037 -0.0625 15.875 C-0.07410156 14.73804688 -0.08570313 13.60109375 -0.09765625 12.4296875 C0 9 0 9 0.56640625 5.7578125 C1.22899363 2.92075446 1.22899363 2.92075446 0 0 Z " fill="#0D0937" transform="translate(460,267)"/>
<path d="M0 0 C1 3 1 3 -0.1875 5.5625 C-2.11759564 8.15814586 -3.04374506 8.85816608 -6 10 C-8.578125 10.1953125 -8.578125 10.1953125 -11.25 10.125 C-12.14203125 10.10695313 -13.0340625 10.08890625 -13.953125 10.0703125 C-14.96632812 10.03550781 -14.96632812 10.03550781 -16 10 C-12.6390031 7.7593354 -11.83972856 8 -8 8 C-5.28524895 7.43088211 -5.28524895 7.43088211 -3 6 C-1.70339566 3.50965614 -1.70339566 3.50965614 -1 1 C-0.67 0.67 -0.34 0.34 0 0 Z " fill="#010011" transform="translate(264,336)"/>
<path d="M0 0 C4.71171241 1.97971109 5.76197356 4.52394712 8 9 C8 9.66 8 10.32 8 11 C9.32 11.66 10.64 12.32 12 13 C11.67 13.99 11.34 14.98 11 16 C10.34 15.01 9.68 14.02 9 13 C8.01 12.34 7.02 11.68 6 11 C4.86820473 9.16599599 3.81165981 7.28450541 2.8125 5.375 C2.28269531 4.37210938 1.75289062 3.36921875 1.20703125 2.3359375 C0.80871094 1.56507813 0.41039062 0.79421875 0 0 Z " fill="#0C0535" transform="translate(188,192)"/>
<path d="M0 0 C2 2 2 2 3 5 C6.00847418 6.22520264 6.00847418 6.22520264 9 7 C8.67 7.66 8.34 8.32 8 9 C6.56068883 8.54738642 5.12361001 8.08767021 3.6875 7.625 C2.88699219 7.36976563 2.08648437 7.11453125 1.26171875 6.8515625 C-1 6 -1 6 -4 4 C-3.67 3.34 -3.34 2.68 -3 2 C-2.01 2 -1.02 2 0 2 C0 1.34 0 0.68 0 0 Z " fill="#201A4C" transform="translate(364,154)"/>
<path d="M0 0 C4.19469571 0.59924224 8.00999834 1.57499941 12 3 C12 3.66 12 4.32 12 5 C13.2065625 5.185625 13.2065625 5.185625 14.4375 5.375 C15.7059375 5.684375 15.7059375 5.684375 17 6 C17.33 6.66 17.66 7.32 18 8 C11.79522136 6.06375702 5.89174281 3.74390859 0 1 C0 0.67 0 0.34 0 0 Z " fill="#0A0735" transform="translate(156,442)"/>
<path d="M0 0 C-2.64760501 2.1748184 -4.65266857 3.30744867 -8 4 C-8.33 4.33 -8.66 4.66 -9 5 C-11.33297433 5.04092937 -13.66705225 5.04241723 -16 5 C-16 4.67 -16 4.34 -16 4 C-14.35 4 -12.7 4 -11 4 C-11 3.34 -11 2.68 -11 2 C-3.57142857 -1.57142857 -3.57142857 -1.57142857 0 0 Z " fill="#090436" transform="translate(148,284)"/>
<path d="M0 0 C4.99911924 0.47610659 7.97832683 2.03162219 12 5 C8.275397 6.24153433 7.52247731 5.47452539 4 4 C2.0075675 3.62406934 0.0081326 3.28020455 -2 3 C-1.34 2.67 -0.68 2.34 0 2 C0 1.34 0 0.68 0 0 Z " fill="#1A1738" transform="translate(97,251)"/>
<path d="M0 0 C0.99 0.495 0.99 0.495 2 1 C3.02273507 4.62138266 3.10762232 8.06734756 3.0625 11.8125 C3.05347656 12.78832031 3.04445313 13.76414063 3.03515625 14.76953125 C3.02355469 15.50558594 3.01195312 16.24164063 3 17 C2.67 17 2.34 17 2 17 C0.4943096 11.19233704 -0.21824777 6.0018137 0 0 Z " fill="#0B0433" transform="translate(437,240)"/>
<path d="M0 0 C0.33 0.66 0.66 1.32 1 2 C0.14453125 3.875 0.14453125 3.875 -1.1875 6 C-1.61417969 6.70125 -2.04085938 7.4025 -2.48046875 8.125 C-4.15205173 10.18762167 -5.56700256 10.99970983 -8 12 C-5.87258608 7.29729554 -3.37939175 3.83606631 0 0 Z " fill="#0A0532" transform="translate(278,315)"/>
<path d="M0 0 C2.31 0.66 4.62 1.32 7 2 C5.79296875 3.51953125 5.79296875 3.51953125 4 5 C1.73828125 5.07421875 1.73828125 5.07421875 -0.6875 4.6875 C-1.49574219 4.56761719 -2.30398438 4.44773437 -3.13671875 4.32421875 C-3.75160156 4.21722656 -4.36648438 4.11023438 -5 4 C-2 2 -2 2 0 2 C0 1.34 0 0.68 0 0 Z " fill="#0F0939" transform="translate(347,280)"/>
<path d="M0 0 C0.66 0.99 1.32 1.98 2 3 C1.34 3.66 0.68 4.32 0 5 C-0.88778692 6.96488831 -0.88778692 6.96488831 -1.625 9.125 C-1.88539063 9.84945313 -2.14578125 10.57390625 -2.4140625 11.3203125 C-2.60742188 11.87460937 -2.80078125 12.42890625 -3 13 C-3.99 13 -4.98 13 -6 13 C-4.68 9.7 -3.36 6.4 -2 3 C-1.34 3 -0.68 3 0 3 C0 2.01 0 1.02 0 0 Z " fill="#090535" transform="translate(269,328)"/>
<path d="M0 0 C0.79921875 0.01804687 1.5984375 0.03609375 2.421875 0.0546875 C3.02515625 0.07789063 3.6284375 0.10109375 4.25 0.125 C4.25 0.785 4.25 1.445 4.25 2.125 C-1.03 2.785 -6.31 3.445 -11.75 4.125 C-7.61208323 1.36638882 -5.03296982 -0.14802852 0 0 Z " fill="#000010" transform="translate(155.75,278.875)"/>
<path d="M0 0 C0.66 0.99 1.32 1.98 2 3 C1.34 3 0.68 3 0 3 C-0.12375 3.53625 -0.2475 4.0725 -0.375 4.625 C-1.12206016 7.4638286 -2.05303364 10.22223202 -3 13 C-3.66 13 -4.32 13 -5 13 C-4.55170486 11.01853549 -4.09107502 9.03985789 -3.625 7.0625 C-3.24214844 5.40927734 -3.24214844 5.40927734 -2.8515625 3.72265625 C-2.43003906 2.37494141 -2.43003906 2.37494141 -2 1 C-1.34 0.67 -0.68 0.34 0 0 Z " fill="#0C0836" transform="translate(49,179)"/>
<path d="M0 0 C1.60031344 3.20062687 0.03173691 5.72271806 -1 9 C-3.9375 8.625 -3.9375 8.625 -7 8 C-7.33 7.34 -7.66 6.68 -8 6 C-6.02 6 -4.04 6 -2 6 C-1.855625 5.195625 -1.71125 4.39125 -1.5625 3.5625 C-1 1 -1 1 0 0 Z " fill="#020018" transform="translate(377,281)"/>
<path d="M0 0 C4.77609498 1.64178265 8.79382904 4.26546702 13 7 C12.01 7.495 12.01 7.495 11 8 C9.31923769 7.36971413 7.65204456 6.70211894 6 6 C5.34 6 4.68 6 4 6 C3.896875 5.360625 3.79375 4.72125 3.6875 4.0625 C3.460625 3.381875 3.23375 2.70125 3 2 C2.01 1.67 1.02 1.34 0 1 C0 0.67 0 0.34 0 0 Z " fill="#0E093C" transform="translate(355,64)"/>
<path d="M0 0 C0.66 0 1.32 0 2 0 C2 3.3 2 6.6 2 10 C1.01 9.67 0.02 9.34 -1 9 C-0.67 6.03 -0.34 3.06 0 0 Z " fill="#0C0839" transform="translate(461,224)"/>
<path d="M0 0 C1.31611677 0.95336021 2.62778961 1.91285774 3.9375 2.875 C4.66839844 3.40867187 5.39929688 3.94234375 6.15234375 4.4921875 C8 6 8 6 9 8 C6.36 7.67 3.72 7.34 1 7 C0.67 4.69 0.34 2.38 0 0 Z " fill="#0D093C" transform="translate(380,80)"/>
<path d="M0 0 C3.465 1.98 3.465 1.98 7 4 C5.68 4.99 4.36 5.98 3 7 C1.5 5.75 1.5 5.75 0 4 C0 2.68 0 1.36 0 0 Z " fill="#1A154A" transform="translate(410,254)"/>
<path d="M0 0 C2.82184205 1.41092103 2.89577176 3.07704289 4 6 C4.556875 7.051875 5.11375 8.10375 5.6875 9.1875 C6.120625 10.115625 6.55375 11.04375 7 12 C6.67 12.66 6.34 13.32 6 14 C3.07413567 12.53706784 2.94053412 10.59729902 1.875 7.5625 C1.34519531 6.07943359 1.34519531 6.07943359 0.8046875 4.56640625 C0 2 0 2 0 0 Z " fill="#010013" transform="translate(174,167)"/>
<path d="M0 0 C1.9375 0.1875 1.9375 0.1875 4 1 C5.125 2.875 5.125 2.875 6 5 C6.99 6.485 6.99 6.485 8 8 C4.18315774 6.44499019 1.80804268 3.96404505 -1 1 C-0.67 0.67 -0.34 0.34 0 0 Z " fill="#0C0839" transform="translate(113,412)"/>
<path d="M0 0 C3.49158202 0.64658926 6.0974856 1.96039529 9 4 C9.33 4.99 9.66 5.98 10 7 C5.04303419 5.76075855 2.88341534 4.21422242 0 0 Z " fill="#01010B" transform="translate(398,179)"/>
<path d="M0 0 C1.39195915 4.17587745 -0.17676781 6.13474776 -2 10 C-2.66 9.34 -3.32 8.68 -4 8 C-3.77256695 5.04337034 -3.38764062 3.44966312 -1.4375 1.1875 C-0.963125 0.795625 -0.48875 0.40375 0 0 Z " fill="#161142" transform="translate(329,154)"/>
<path d="M0 0 C1.32 0.33 2.64 0.66 4 1 C-0.95 3.97 -0.95 3.97 -6 7 C-5.34 5.35 -4.68 3.7 -4 2 C-2.68 2 -1.36 2 0 2 C0 1.34 0 0.68 0 0 Z " fill="#090633" transform="translate(369,425)"/>
<path d="M0 0 C0.33 0 0.66 0 1 0 C1.66 4.62 2.32 9.24 3 14 C2.34 14 1.68 14 1 14 C-0.512545 8.83955235 -1.33500455 5.34001821 0 0 Z " fill="#0D0937" transform="translate(459,206)"/>
<path d="M0 0 C7.38461538 -0.36923077 7.38461538 -0.36923077 10.5 1.5 C10.995 1.995 11.49 2.49 12 3 C8.52128379 4.15957207 7.65780355 3.77456651 4.3125 2.5625 C3.50425781 2.27503906 2.69601562 1.98757813 1.86328125 1.69140625 C1.24839844 1.46324219 0.63351562 1.23507812 0 1 C0 0.67 0 0.34 0 0 Z " fill="#282733" transform="translate(282,306)"/>
<path d="M0 0 C1 3 1 3 0.00390625 5.26171875 C-0.47175781 6.06222656 -0.94742187 6.86273438 -1.4375 7.6875 C-1.91058594 8.49574219 -2.38367188 9.30398438 -2.87109375 10.13671875 C-3.24363281 10.75160156 -3.61617188 11.36648438 -4 12 C-5.23086034 8.30741897 -4.66728638 7.41793707 -3 4 C-2.04175747 2.63634717 -1.05278825 1.29205831 0 0 Z " fill="#020113" transform="translate(383,268)"/>
<path d="M0 0 C0.8125 1.625 0.8125 1.625 1 4 C-0.46818136 6.24609835 -2.15852858 8.02378677 -4 10 C-4 5.75354935 -2.18249194 3.61475228 0 0 Z " fill="#090535" transform="translate(387,264)"/>
<path d="M0 0 C1.98 0 3.96 0 6 0 C6 0.66 6 1.32 6 2 C4.02 2.99 2.04 3.98 0 5 C0 3.35 0 1.7 0 0 Z " fill="#1B1647" transform="translate(288,211)"/>
<path d="M0 0 C4.62 0.66 9.24 1.32 14 2 C14 2.33 14 2.66 14 3 C9.71 3 5.42 3 1 3 C0.67 2.01 0.34 1.02 0 0 Z " fill="#0C0734" transform="translate(239,194)"/>
<path d="M0 0 C0.99 0.33 1.98 0.66 3 1 C1.35 2.98 -0.3 4.96 -2 7 C-2.66 6.01 -3.32 5.02 -4 4 C-3.67 3.34 -3.34 2.68 -3 2 C-2.01 2 -1.02 2 0 2 C0 1.34 0 0.68 0 0 Z " fill="#1A1448" transform="translate(85,189)"/>
<path d="M0 0 C0.99 0.33 1.98 0.66 3 1 C1.515 3.475 1.515 3.475 0 6 C-2 4.625 -2 4.625 -4 3 C-4 2.34 -4 1.68 -4 1 C-3.34 1 -2.68 1 -2 1 C-1.67 1.66 -1.34 2.32 -1 3 C-0.67 2.01 -0.34 1.02 0 0 Z " fill="#18114D" transform="translate(89,183)"/>
<path d="M0 0 C1.65 1.32 3.3 2.64 5 4 C4.67 4.66 4.34 5.32 4 6 C2.0625 5.6875 2.0625 5.6875 0 5 C-0.33 4.01 -0.66 3.02 -1 2 C-0.67 1.34 -0.34 0.68 0 0 Z " fill="#0E093D" transform="translate(412,111)"/>
<path d="M0 0 C1.1725131 0.95117134 2.33787015 1.91117009 3.5 2.875 C4.47453125 3.67550781 4.47453125 3.67550781 5.46875 4.4921875 C5.9740625 4.98976563 6.479375 5.48734375 7 6 C7 6.66 7 7.32 7 8 C6.34 8 5.68 8 5 8 C5 7.34 5 6.68 5 6 C4.360625 5.7525 3.72125 5.505 3.0625 5.25 C1 4 1 4 0.37109375 1.921875 C0.24863281 1.28765625 0.12617188 0.6534375 0 0 Z " fill="#1E1A46" transform="translate(217,309)"/>
<path d="M0 0 C1.48199902 0.44909061 2.96055236 0.90956564 4.4375 1.375 C5.26121094 1.63023438 6.08492188 1.88546875 6.93359375 2.1484375 C9 3 9 3 10 5 C6.7 4.34 3.4 3.68 0 3 C0 2.01 0 1.02 0 0 Z " fill="#0E083D" transform="translate(337,55)"/>
<path d="M0 0 C1.485 0.99 1.485 0.99 3 2 C3 2.66 3 3.32 3 4 C3.99 4.33 4.98 4.66 6 5 C4.68 5.33 3.36 5.66 2 6 C2 5.34 2 4.68 2 4 C1.01 3.67 0.02 3.34 -1 3 C-0.67 2.01 -0.34 1.02 0 0 Z " fill="#1D184B" transform="translate(234,337)"/>
</svg>
