<?xml version="1.0" standalone="no"?>
<!DOCTYPE svg PUBLIC "-//W3C//DTD SVG 20010904//EN"
 "http://www.w3.org/TR/2001/REC-SVG-20010904/DTD/svg10.dtd">
<svg version="1.0" xmlns="http://www.w3.org/2000/svg"
 width="500.000000pt" height="500.000000pt" viewBox="0 0 500.000000 500.000000"
 preserveAspectRatio="xMidYMid meet">

<g transform="translate(0.000000,500.000000) scale(0.100000,-0.100000)"
fill="#000000" stroke="none">
<path d="M2258 4620 c-457 -54 -895 -259 -1227 -575 -364 -347 -595 -813 -651
-1310 -13 -117 -13 -367 0 -475 107 -881 725 -1596 1574 -1820 177 -47 279
-61 473 -67 206 -7 348 5 523 44 745 163 1339 698 1575 1418 74 225 105 420
105 665 0 322 -67 625 -201 909 -314 667 -960 1129 -1694 1211 -103 11 -378
11 -477 0z m267 -574 c139 -47 276 -145 353 -253 l23 -32 -57 -56 c-156 -154
-507 -330 -857 -431 -140 -40 -347 -78 -359 -66 -5 5 -12 40 -17 78 -40 329
159 652 463 754 101 33 145 39 261 36 87 -3 127 -9 190 -30z m463 -356 c29
-59 28 -97 -6 -151 -111 -173 -469 -383 -827 -482 -192 -54 -427 -82 -474 -58
-34 18 -61 71 -61 118 l0 42 48 6 c200 26 488 109 692 200 238 105 394 200
505 307 39 37 77 67 85 65 8 -1 25 -22 38 -47z m19 -332 c-4 -110 -10 -147
-32 -211 -73 -211 -251 -379 -475 -449 -97 -30 -270 -32 -370 -4 -128 35 -282
131 -352 219 l-26 34 111 11 c375 39 856 247 1065 461 37 37 71 68 76 69 5 1
6 -56 3 -130z m32 -1523 c193 -457 351 -836 351 -842 0 -36 -95 -69 -117 -40
-6 6 -37 77 -71 157 -33 80 -90 215 -125 300 -390 928 -517 1234 -519 1247 -2
10 16 22 52 37 l55 22 11 -25 c6 -14 169 -400 363 -856z"/>
</g>
</svg>
