<?xml version="1.0" encoding="UTF-8"?>
<svg version="1.1" xmlns="http://www.w3.org/2000/svg" width="500" height="500">
<path d="M0 0 C0.91394531 0.72058594 1.82789063 1.44117188 2.76953125 2.18359375 C12.53269415 10.01926526 22.11070981 18.23953201 30 28 C30.83015625 29.00417969 31.6603125 30.00835937 32.515625 31.04296875 C66.25805613 72.42666332 82.25203748 125.06733361 77.49609375 178.23828125 C71.9999081 230.59007703 47.1433465 280.80201607 5.9609375 314.3515625 C-8.0084781 325.40464105 -22.86768529 334.48130055 -39 342 C-40.13824219 342.53367187 -41.27648437 343.06734375 -42.44921875 343.6171875 C-90.35242822 365.09295853 -145.74821087 365.54365823 -194.6875 347.25 C-210.8233454 340.96829126 -225.985157 333.18168931 -240 323 C-240.8360376 322.39720215 -240.8360376 322.39720215 -241.68896484 321.78222656 C-284.38331419 290.7340651 -312.50752176 243.92164456 -321.52734375 192.04931641 C-329.80181881 138.66698507 -317.17521615 85.20332772 -286 41.1875 C-273.38831667 24.44835668 -259.01521456 9.29751139 -242 -3 C-241.43941895 -3.41024414 -240.87883789 -3.82048828 -240.30126953 -4.24316406 C-217.30355625 -20.89327118 -190.75530759 -32.29640035 -163 -38 C-161.85966309 -38.24556641 -161.85966309 -38.24556641 -160.69628906 -38.49609375 C-105.61833718 -49.90290963 -43.88876061 -34.9074317 0 0 Z " fill="#0B0447" transform="translate(364,97)"/>
<path d="M0 0 C6.28737935 2.71220286 9.16102578 8.03415558 12 14 C16.37135691 25.46266923 17.18012831 36.15659022 17.1875 48.3125 C17.19974609 49.36373047 17.21199219 50.41496094 17.22460938 51.49804688 C17.26584674 73.86244701 9.64314272 92.21395835 -5 109 C-5.98225748 110.20582214 -6.96208121 111.4136392 -7.9375 112.625 C-10 115 -10 115 -12 116 C-11.55761615 123.53216715 -10.86094772 130.6802723 -9 138 C-8.20335937 137.57847656 -7.40671875 137.15695313 -6.5859375 136.72265625 C-5.52632813 136.17480469 -4.46671875 135.62695312 -3.375 135.0625 C-2.33085937 134.51722656 -1.28671875 133.97195312 -0.2109375 133.41015625 C9.99760415 128.92684295 22.5846061 130.0343182 32.89453125 133.61328125 C45.03773252 139.03571704 52.89190742 148.16478267 58 160.24609375 C62.96698142 173.92469492 62.02718976 187.88199876 56 201 C48.12400225 216.39361895 34.64575609 223.36586027 18.8125 228.5 C15.07169908 229.61407678 11.90432248 230.17130483 8 230 C8.20496094 230.92941406 8.40992188 231.85882813 8.62109375 232.81640625 C8.89050781 234.05261719 9.15992188 235.28882813 9.4375 236.5625 C9.70433594 237.78066406 9.97117187 238.99882812 10.24609375 240.25390625 C12.65489015 252.22300338 14.56456534 266.04155227 8 277 C2.95789739 282.83620985 -1.97981303 286.62735307 -9.7890625 287.20703125 C-17.53559643 287.46653053 -22.23551562 286.5388383 -28.6875 282.1875 C-32.96407313 278.14209298 -35.24104475 274.94704132 -35.5 269 C-35.30305287 264.32953952 -34.18522357 261.53913729 -31 258 C-28.02896297 255.66561376 -24.82660247 255.5821076 -21.09765625 255.6796875 C-17.36499001 256.24966633 -15.06286371 257.79473813 -12 260 C-9.37914961 264.17588828 -9.3599048 268.2117554 -10 273 C-11.52572091 276.58212736 -12.68665611 278.403231 -16.26953125 280.03125 C-18.49899697 280.78961944 -20.71271911 281.44284183 -23 282 C-17.19817147 283.93394284 -9.67796595 284.28965786 -4.0625 281.5625 C0.72371959 277.55770402 3.9017221 272.1974253 5 266 C5.75342715 254.04658852 4.1420959 242.73052517 2 231 C0.97003906 231.04640625 -0.05992187 231.0928125 -1.12109375 231.140625 C-20.75876665 231.75539384 -39.77337583 227.05098818 -54.625 213.5625 C-65.25334677 203.39237717 -71.97938992 190.28699845 -72.48217773 175.45556641 C-72.71403736 145.13595071 -53.44593918 122.88273 -33.34765625 102.28125 C-31 100 -31 100 -28.76171875 98.18359375 C-25.64369868 95.55881979 -23.22561006 93.51112753 -22.60473633 89.35253906 C-22.63849365 88.39573242 -22.67225098 87.43892578 -22.70703125 86.453125 C-22.74030518 85.39279053 -22.7735791 84.33245605 -22.80786133 83.23999023 C-23.10365161 78.25214672 -23.52484641 73.28609661 -24 68.3125 C-28.01950495 21.62766156 -28.01950495 21.62766156 -17 6 C-12.11566441 0.67746362 -7.18004103 -1.49751321 0 0 Z " fill="#F9F8FA" transform="translate(247,113)"/>
<path d="M0 0 C10.32195506 5.45219256 17.85118087 14.3424359 21.82421875 25.359375 C24.14935597 35.65252631 23.67140855 45.5865575 18.24609375 54.80078125 C10.48953598 65.92599996 -1.32270943 70.64887925 -14.1328125 74.00390625 C-17.26542909 74.41609264 -20.35146122 74.33479991 -23.5078125 74.31640625 C-24.40544995 69.85843467 -25.30110892 65.40006776 -26.1953125 60.94140625 C-26.39731262 59.93432114 -26.39731262 59.93432114 -26.60339355 58.90689087 C-28.74387854 48.22590892 -30.83201355 37.53588199 -32.8581543 26.83251953 C-33.85309289 21.60239806 -34.904401 16.40189282 -36.13720703 11.22216797 C-36.652868 8.57048842 -36.64573448 6.00588484 -36.5078125 3.31640625 C-34.9049072 2.50142063 -33.30043972 1.68950698 -31.6953125 0.87890625 C-30.80199219 0.42644531 -29.90867188 -0.02601563 -28.98828125 -0.4921875 C-20.22232408 -4.70260788 -8.7927145 -3.74407872 0 0 Z " fill="#0C0548" transform="translate(276.5078125,261.68359375)"/>
<path d="M0 0 C0.50400451 2.91602609 1.00334666 5.83272092 1.5 8.75 C1.64308594 9.575 1.78617188 10.4 1.93359375 11.25 C2.13662109 12.44882813 2.13662109 12.44882813 2.34375 13.671875 C2.46943359 14.4050293 2.59511719 15.13818359 2.72460938 15.89355469 C3 18 3 18 3 22 C1.85612155 23.17752193 0.70274725 24.34751889 -0.5 25.46484375 C-5.9175032 31.00931969 -9.03126021 37.59243949 -11 45 C-11.18304688 45.62261719 -11.36609375 46.24523437 -11.5546875 46.88671875 C-13.88516749 57.9462773 -10.98876228 68.1621399 -6 78 C-6.01571045 77.15405273 -6.01571045 77.15405273 -6.03173828 76.29101562 C-6.07374478 73.69405719 -6.09946602 71.09717061 -6.125 68.5 C-6.14175781 67.613125 -6.15851563 66.72625 -6.17578125 65.8125 C-6.26268256 53.9939215 -2.89953834 44.77726483 5 36 C7.28249648 39.42374472 7.64860999 41.7381351 8.33203125 45.78125 C8.44897842 46.45929688 8.5659256 47.13734375 8.68641663 47.8359375 C9.06817471 50.05625047 9.44025664 52.27807397 9.8125 54.5 C10.20656591 56.80520866 10.6032261 59.10996045 11.00018311 61.41467285 C11.26922045 62.9769595 11.53748508 64.5393794 11.80499268 66.10192871 C13.28668776 74.73445227 14.89982788 83.34097774 16.52661133 91.94726562 C16.72150146 92.98560547 16.9163916 94.02394531 17.1171875 95.09375 C17.28847168 95.99802734 17.45975586 96.90230469 17.63623047 97.83398438 C18 100 18 100 18 102 C2.56499477 103.13400038 -12.68110039 97.38855612 -24.734375 87.83203125 C-32.65431341 80.32403594 -38.30080973 71.44718934 -39.3359375 60.421875 C-39.54723517 40.55989436 -29.04427213 26.30792848 -15.625 12.375 C-2.85857664 0 -2.85857664 0 0 0 Z " fill="#0E0748" transform="translate(230,234)"/>
<path d="M0 0 C3.0625 0.4375 3.0625 0.4375 5.21484375 1.85546875 C8.02783769 5.78652371 7.74509494 9.4609312 7.6875 14.1875 C7.678396 15.1261792 7.66929199 16.0648584 7.65991211 17.03198242 C7.06764461 35.21289358 -3.70576282 53.53153968 -14.9375 67.4375 C-15.2675 67.4375 -15.5975 67.4375 -15.9375 67.4375 C-15.98776066 63.40311564 -16.0236162 59.36885797 -16.04736328 55.33422852 C-16.05728563 53.9679852 -16.07082786 52.60176231 -16.08837891 51.2355957 C-16.29120563 35.01542342 -15.59322219 14.70677789 -4.46484375 1.71875 C-2.9375 0.4375 -2.9375 0.4375 0 0 Z " fill="#0F0848" transform="translate(245.9375,128.5625)"/>
<path d="M0 0 C1.98 0.99 3.96 1.98 6 3 C5.09677683 6.61289268 4.06263701 7.94961806 1.125 10.3125 C-3.87510081 12.91255242 -9.51982292 12.66473234 -15 12 C-17.36328125 10.9765625 -17.36328125 10.9765625 -19 10 C-19 9.67 -19 9.34 -19 9 C-18.04738281 8.85304688 -17.09476563 8.70609375 -16.11328125 8.5546875 C-7.97710682 7.45635246 -7.97710682 7.45635246 -1.625 2.8125 C-1.08875 1.884375 -0.5525 0.95625 0 0 Z " fill="#110A47" transform="translate(242,385)"/>
<path d="M0 0 C0.66 4.62 1.32 9.24 2 14 C-1.63 14 -5.26 14 -9 14 C-6 12 -6 12 -4 12 C-4.37125 10.4221875 -4.37125 10.4221875 -4.75 8.8125 C-5 5 -5 5 -3.125 2.0625 C-1 0 -1 0 0 0 Z " fill="#1A124C" transform="translate(246,322)"/>
<path d="M0 0 C0.66 0.33 1.32 0.66 2 1 C1.67012361 3.47407292 1.42027913 4.6637767 -0.5625 6.25 C-4.91692875 7.58982423 -9.25122241 7.69951104 -13.5 6 C-13.995 5.67 -14.49 5.34 -15 5 C-15 4.67 -15 4.34 -15 4 C-14.00097656 3.79503906 -13.00195312 3.59007812 -11.97265625 3.37890625 C-10.68230469 3.10949219 -9.39195312 2.84007812 -8.0625 2.5625 C-6.77472656 2.29566406 -5.48695313 2.02882813 -4.16015625 1.75390625 C-1.15361121 1.32818384 -1.15361121 1.32818384 0 0 Z " fill="#0C0446" transform="translate(238,390)"/>
<path d="M0 0 C1.32 0 2.64 0 4 0 C4 0.99 4 1.98 4 3 C4.721875 3.061875 5.44375 3.12375 6.1875 3.1875 C9.8711327 4.25166056 11.37943656 6.24840839 14 9 C15.63377642 10.05287814 17.29181597 11.0727001 19 12 C19 11.34 19 10.68 19 10 C19.66 10.33 20.32 10.66 21 11 C20.67 11.99 20.34 12.98 20 14 C20.99 14 21.98 14 23 14 C23.33 14.99 23.66 15.98 24 17 C19.73152556 15.51358525 16.22555677 13.27948754 12.5625 10.6875 C11.74168945 10.11999023 11.74168945 10.11999023 10.90429688 9.54101562 C7.09830819 6.87907561 3.49407287 4.06192509 0 1 C0 0.67 0 0.34 0 0 Z " fill="#0B0736" transform="translate(114,411)"/>
<path d="M0 0 C2.92577938 2.92577938 2.42659177 5.78336157 2.65625 9.78515625 C2.82640625 10.88150391 2.82640625 10.88150391 3 12 C3.66 12.33 4.32 12.66 5 13 C4.98839844 13.83144531 4.97679687 14.66289062 4.96484375 15.51953125 C4.95582031 16.60621094 4.94679688 17.69289063 4.9375 18.8125 C4.92589844 19.89144531 4.91429687 20.97039062 4.90234375 22.08203125 C4.86375234 25.06512169 4.86375234 25.06512169 6 28 C5.0625 30.1875 5.0625 30.1875 4 32 C3.3223726 28.16852166 2.65990233 24.33456759 2 20.5 C1.80921875 19.42234375 1.6184375 18.3446875 1.421875 17.234375 C0.42549235 11.39841946 -0.22990081 5.91994598 0 0 Z " fill="#0F093C" transform="translate(41,270)"/>
<path d="M0 0 C0 3.20395416 -0.74335022 5.09399739 -2 8 C-2.66 7.67 -3.32 7.34 -4 7 C-6.25245881 9.68841859 -7.88213958 11.64641875 -9 15 C-9.66 15 -10.32 15 -11 15 C-11 15.66 -11 16.32 -11 17 C-11.66 17 -12.32 17 -13 17 C-13.28875 17.639375 -13.5775 18.27875 -13.875 18.9375 C-15 21 -15 21 -17 22 C-15.45832375 16.75627222 -12.0634672 13.29724477 -8.5 9.3125 C-7.90574219 8.63638672 -7.31148437 7.96027344 -6.69921875 7.26367188 C-4.51417592 4.78515264 -2.33684317 2.33684317 0 0 Z " fill="#100B3C" transform="translate(95,118)"/>
<path d="M0 0 C0.99 0.33 1.98 0.66 3 1 C-12.61111111 14 -12.61111111 14 -16 14 C-16 13.34 -16 12.68 -16 12 C-14.42127834 10.7912002 -12.78553783 9.65619701 -11.125 8.5625 C-7.93662716 6.45962732 -6.14059031 5.21088546 -4 2 C-2.68 2 -1.36 2 0 2 C0 1.34 0 0.68 0 0 Z " fill="#0C0839" transform="translate(368,409)"/>
<path d="M0 0 C0.66 0 1.32 0 2 0 C0.4805627 4.8603687 -2.32918654 8.06079356 -5.625 11.8125 C-6.140625 12.40998047 -6.65625 13.00746094 -7.1875 13.62304688 C-8.45246272 15.08712409 -9.72543834 16.54427155 -11 18 C-11 13.9666466 -9.39120082 12.16482462 -7 9 C-6.34 9 -5.68 9 -5 9 C-4.731875 8.443125 -4.46375 7.88625 -4.1875 7.3125 C-2.89100504 4.78774666 -1.57523677 2.36285516 0 0 Z " fill="#0B0834" transform="translate(404,370)"/>
<path d="M0 0 C0.33 0.66 0.66 1.32 1 2 C0.505 2.45375 0.01 2.9075 -0.5 3.375 C-2.22609337 4.87635519 -2.22609337 4.87635519 -2 7 C-4.89234315 7.82638376 -6.88742431 8 -10 8 C-10 8.66 -10 9.32 -10 10 C-10.99 9.67 -11.98 9.34 -13 9 C-11.20966193 7.68568828 -9.41768797 6.3736047 -7.625 5.0625 C-6.62726563 4.33160156 -5.62953125 3.60070312 -4.6015625 2.84765625 C-2 1 -2 1 0 0 Z " fill="#0E0A3E" transform="translate(134,86)"/>
<path d="M0 0 C1.32 0 2.64 0 4 0 C3 2 3 2 1 3.9375 C-1.21548272 5.92411167 -1.21548272 5.92411167 -2 9 C-2.66 9 -3.32 9 -4 9 C-4.33 10.32 -4.66 11.64 -5 13 C-5.66 13 -6.32 13 -7 13 C-5.86535866 9.69922518 -4.36542129 6.70244518 -2.625 3.6875 C-2.22539062 2.99011719 -1.82578125 2.29273438 -1.4140625 1.57421875 C-0.94742188 1.05472656 -0.48078125 0.53523438 0 0 Z " fill="#1B164A" transform="translate(202,261)"/>
<path d="M0 0 C-3 2 -3 2 -6 2 C-6 2.66 -6 3.32 -6 4 C-6.886875 4.144375 -7.77375 4.28875 -8.6875 4.4375 C-11.47117646 4.91019978 -14.23483757 5.43070185 -17 6 C-17 5.34 -17 4.68 -17 4 C-14.73291675 3.1344953 -12.46224921 2.28240685 -10.1875 1.4375 C-9.54490234 1.19064453 -8.90230469 0.94378906 -8.24023438 0.68945312 C-3.33984375 -1.11328125 -3.33984375 -1.11328125 0 0 Z " fill="#110C3F" transform="translate(184,65)"/>
<path d="M0 0 C7.02952752 0.4535179 12.5849443 2.12059087 19 5 C18.67 5.66 18.34 6.32 18 7 C12.06 5.02 6.12 3.04 0 1 C0 0.67 0 0.34 0 0 Z " fill="#0D0838" transform="translate(169,443)"/>
<path d="M0 0 C1.26041675 2.5208335 0.66225891 3.35096436 0 6 C0.33 6.66 0.66 7.32 1 8 C-0.375 9.5 -0.375 9.5 -2 11 C-2.66 11 -3.32 11 -4 11 C-4.99 14.465 -4.99 14.465 -6 18 C-7.35685993 13.92942022 -5.80868515 11.57910733 -4.125 7.875 C-3.70154297 6.90626953 -3.70154297 6.90626953 -3.26953125 5.91796875 C-1.16870301 1.16870301 -1.16870301 1.16870301 0 0 Z " fill="#110C42" transform="translate(61,167)"/>
<path d="M0 0 C-0.66 1.65 -1.32 3.3 -2 5 C-8.15234375 4.4140625 -8.15234375 4.4140625 -10 4 C-10.33 3.34 -10.66 2.68 -11 2 C-9.54494642 1.47007308 -8.08581873 0.9513211 -6.625 0.4375 C-5.81289063 0.14746094 -5.00078125 -0.14257812 -4.1640625 -0.44140625 C-2 -1 -2 -1 0 0 Z " fill="#140F45" transform="translate(278,338)"/>
<path d="M0 0 C1.9375 0.8125 1.9375 0.8125 4 2 C4.33 2.99 4.66 3.98 5 5 C3.02 5.99 1.04 6.98 -1 8 C-1.33 6.02 -1.66 4.04 -2 2 C-1.34 2 -0.68 2 0 2 C0 1.34 0 0.68 0 0 Z " fill="#1A124D" transform="translate(238,244)"/>
<path d="M0 0 C0.33 0.99 0.66 1.98 1 3 C-0.375 4.5 -0.375 4.5 -2 6 C-2.66 6 -3.32 6 -4 6 C-3.67 6.99 -3.34 7.98 -3 9 C-3.66 9 -4.32 9 -5 9 C-5.33 9.66 -5.66 10.32 -6 11 C-6.66 10.67 -7.32 10.34 -8 10 C-7.67 9.01 -7.34 8.02 -7 7 C-6.34 7 -5.68 7 -5 7 C-4.731875 6.401875 -4.46375 5.80375 -4.1875 5.1875 C-3.01506533 3.02775192 -1.80630718 1.64209744 0 0 Z " fill="#251F50" transform="translate(242,221)"/>
<path d="M0 0 C0.33 2.97 0.66 5.94 1 9 C0.34 9 -0.32 9 -1 9 C-1.268125 8.360625 -1.53625 7.72125 -1.8125 7.0625 C-2.88667752 4.66868314 -2.88667752 4.66868314 -6 4 C-1.125 0 -1.125 0 0 0 Z " fill="#2A2351" transform="translate(230,234)"/>
<path d="M0 0 C0.33 0 0.66 0 1 0 C0.03644647 10.55808656 0.03644647 10.55808656 -1 15 C-1.33 15 -1.66 15 -2 15 C-2 10.71 -2 6.42 -2 2 C-1.34 2 -0.68 2 0 2 C0 1.34 0 0.68 0 0 Z " fill="#0F093D" transform="translate(438,288)"/>
<path d="M0 0 C0.94875 0.04125 1.8975 0.0825 2.875 0.125 C1.885 0.62 1.885 0.62 0.875 1.125 C0.875 1.785 0.875 2.445 0.875 3.125 C-0.07375 3.434375 -1.0225 3.74375 -2 4.0625 C-4.98580408 4.99894742 -4.98580408 4.99894742 -7.125 6.125 C-4.34782609 0.17391304 -4.34782609 0.17391304 0 0 Z " fill="#1C164B" transform="translate(246.125,128.875)"/>
<path d="M0 0 C-2.36689329 2.19219402 -3.51727269 2.9871902 -6.796875 3.07421875 C-7.77140625 2.94660156 -8.7459375 2.81898437 -9.75 2.6875 C-10.73484375 2.56761719 -11.7196875 2.44773438 -12.734375 2.32421875 C-13.48203125 2.21722656 -14.2296875 2.11023437 -15 2 C-15 1.67 -15 1.34 -15 1 C-9.91913204 0.15318867 -5.15171623 -0.09038099 0 0 Z " fill="#110C3E" transform="translate(222,57)"/>
<path d="M0 0 C3.96 0.33 7.92 0.66 12 1 C12 1.33 12 1.66 12 2 C7.9472484 2.98248524 4.16138263 3.08159574 0 3 C0 2.01 0 1.02 0 0 Z " fill="#38335F" transform="translate(253,333)"/>
<path d="M0 0 C0.99 0.66 1.98 1.32 3 2 C2.01 3.98 1.02 5.96 0 8 C-0.66 8 -1.32 8 -2 8 C-2.33 6.68 -2.66 5.36 -3 4 C-2.01 3.67 -1.02 3.34 0 3 C0 2.01 0 1.02 0 0 Z " fill="#1C154C" transform="translate(243,170)"/>
<path d="M0 0 C0.33 0.66 0.66 1.32 1 2 C0.22265625 3.9453125 0.22265625 3.9453125 -0.9375 6.125 C-1.31777344 6.84945312 -1.69804688 7.57390625 -2.08984375 8.3203125 C-2.39019531 8.87460938 -2.69054687 9.42890625 -3 10 C-3.99 10 -4.98 10 -6 10 C-5.18957164 8.51969728 -4.37659652 7.04078858 -3.5625 5.5625 C-2.88380859 4.32693359 -2.88380859 4.32693359 -2.19140625 3.06640625 C-1 1 -1 1 0 0 Z " fill="#100A3C" transform="translate(77,140)"/>
<path d="M0 0 C0 0.99 0 1.98 0 3 C-1.75 4.125 -1.75 4.125 -4 5 C-6.25 4.125 -6.25 4.125 -8 3 C-8 2.67 -8 2.34 -8 2 C-5.36 1.34 -2.72 0.68 0 0 Z " fill="#373159" transform="translate(231,392)"/>
<path d="M0 0 C1.953125 0.35807292 3.90625 0.71614583 5.859375 1.07421875 C5.859375 1.40421875 5.859375 1.73421875 5.859375 2.07421875 C-0.080625 2.56921875 -0.080625 2.56921875 -6.140625 3.07421875 C-2.140625 0.07421875 -2.140625 0.07421875 0 0 Z " fill="#10093D" transform="translate(267.140625,452.92578125)"/>
<path d="M0 0 C3.63 0.33 7.26 0.66 11 1 C11 1.33 11 1.66 11 2 C8.69 2 6.38 2 4 2 C3.67 2.66 3.34 3.32 3 4 C1.68 3.34 0.36 2.68 -1 2 C-0.67 1.34 -0.34 0.68 0 0 Z " fill="#C6C2D9" transform="translate(225,396)"/>
<path d="M0 0 C0.33 0 0.66 0 1 0 C1 3.96 1 7.92 1 12 C0.01 11.34 -0.98 10.68 -2 10 C-1.34 6.7 -0.68 3.4 0 0 Z " fill="#1E1B4A" transform="translate(174,283)"/>
<path d="M0 0 C0.66 0.33 1.32 0.66 2 1 C2 1.99 2 2.98 2 4 C1.360625 4.103125 0.72125 4.20625 0.0625 4.3125 C-0.618125 4.539375 -1.29875 4.76625 -2 5 C-2.33 5.99 -2.66 6.98 -3 8 C-3.1875 5.125 -3.1875 5.125 -3 2 C-2.01 1.34 -1.02 0.68 0 0 Z " fill="#221C50" transform="translate(243,263)"/>
<path d="M0 0 C0.99 0.33 1.98 0.66 3 1 C2.43628586 4.26954202 1.50037734 5.82575883 -1 8 C-0.67 5.36 -0.34 2.72 0 0 Z " fill="#20184E" transform="translate(231,188)"/>
<path d="M0 0 C0.66 0.33 1.32 0.66 2 1 C1 4 1 4 -0.8125 5.0625 C-1.8953125 5.5265625 -1.8953125 5.5265625 -3 6 C-4.33576637 6.66177822 -5.66946771 7.32776042 -7 8 C-6.02133662 6.85373678 -5.04205413 5.70800212 -4.0625 4.5625 C-3.51722656 3.92441406 -2.97195312 3.28632812 -2.41015625 2.62890625 C-1.63204305 1.73008851 -0.84063472 0.84063472 0 0 Z " fill="#120D41" transform="translate(107,106)"/>
<path d="M0 0 C1.32 0 2.64 0 4 0 C4.33 0.99 4.66 1.98 5 3 C2.69 3.33 0.38 3.66 -2 4 C-1.34 2.68 -0.68 1.36 0 0 Z " fill="#0A0341" transform="translate(237,331)"/>
<path d="M0 0 C1.14926266 0.95421808 2.29430541 1.91352045 3.4375 2.875 C4.07558594 3.40867187 4.71367187 3.94234375 5.37109375 4.4921875 C7 6 7 6 8 8 C5.125 7.375 5.125 7.375 2 6 C0.625 2.875 0.625 2.875 0 0 Z " fill="#110B3F" transform="translate(372,104)"/>
<path d="M0 0 C0.33 1.32 0.66 2.64 1 4 C0.01 4 -0.98 4 -2 4 C-1.67 4.99 -1.34 5.98 -1 7 C-1.99 7.66 -2.98 8.32 -4 9 C-3.38461538 3.46153846 -3.38461538 3.46153846 -1.4375 1.125 C-0.963125 0.75375 -0.48875 0.3825 0 0 Z " fill="#1F1854" transform="translate(245,322)"/>
<path d="M0 0 C2 3 2 3 3 6 C2.01 6.66 1.02 7.32 0 8 C0 7.01 0 6.02 0 5 C-0.66 4.67 -1.32 4.34 -2 4 C-1.34 2.68 -0.68 1.36 0 0 Z " fill="#1A154D" transform="translate(257,198)"/>
<path d="M0 0 C1.32 0.99 2.64 1.98 4 3 C3.34 4.32 2.68 5.64 2 7 C1.34 6.67 0.68 6.34 0 6 C0 4.02 0 2.04 0 0 Z " fill="#0F0A40" transform="translate(395,128)"/>
<path d="M0 0 C4.455 2.97 4.455 2.97 9 6 C8.01 6.495 8.01 6.495 7 7 C1.125 3.375 1.125 3.375 0 0 Z " fill="#0D093C" transform="translate(351,88)"/>
</svg>
