<?xml version="1.0" encoding="UTF-8"?>
<svg version="1.1" xmlns="http://www.w3.org/2000/svg" width="500" height="500">
<path d="M0 0 C8.06618579 5.78599192 13.76223448 13.12782115 15.87890625 22.9375 C16.46679127 27.51346985 16.67454767 32.08038256 16.875 36.6875 C16.91818359 37.61433594 16.96136719 38.54117188 17.00585938 39.49609375 C17.11126186 41.76810294 17.21338606 44.04020925 17.3125 46.3125 C17.84915283 46.47741943 18.38580566 46.64233887 18.9387207 46.81225586 C42.62028786 54.17644635 63.39240051 64.10849962 82.3125 80.3125 C83.21613281 81.08207031 84.11976563 81.85164063 85.05078125 82.64453125 C91.5566673 88.35855289 97.03488491 94.46202296 102.3125 101.3125 C103.40498047 102.66408203 103.40498047 102.66408203 104.51953125 104.04296875 C120.09354869 123.81733415 129.84259316 147.76820822 134.0625 172.5 C134.17811279 173.17522705 134.29372559 173.8504541 134.4128418 174.54614258 C136.18266396 185.88133615 136.45579242 197.11694422 135.77197266 208.54858398 C135.63607975 211.12423806 135.50312845 213.70004858 135.37271118 216.27598572 C135.32144746 217.2787268 135.32144746 217.2787268 135.26914811 218.30172527 C134.79626109 227.8061076 134.57826753 237.31973286 134.35061073 246.83261013 C134.15955908 254.51922419 133.88190259 262.18371224 133.39453125 269.85766602 C132.8389954 278.79961246 132.5168417 287.72347354 132.5390625 296.68359375 C132.54078996 297.41353153 132.54251741 298.14346931 132.54429722 298.89552641 C132.73342248 320.28458144 137.43921537 333.93915386 152.74258626 349.0898568 C157.51811627 353.67949339 162.54859953 357.86999287 167.76480103 361.94517517 C168.84702523 362.81618072 169.92871067 363.68785616 171.00983047 364.56023216 C174.08030126 367.04822622 174.08030126 367.04822622 177.23351669 369.0897007 C180.05160522 371.2638092 180.05160522 371.2638092 184.3125 377.3125 C184.3125 385.5625 184.3125 393.8125 184.3125 402.3125 C49.3425 402.3125 -85.6275 402.3125 -224.6875 402.3125 C-224.6875 377.3125 -224.6875 377.3125 -220.42462158 371.34613037 C-218.50662137 369.90108646 -216.53423147 368.52612879 -214.52050781 367.21777344 C-212.93167435 365.98792282 -211.34311484 364.75755122 -209.76978302 363.50793076 C-208.67432172 362.63901332 -207.57268516 361.77782762 -206.46518707 360.92430496 C-190.95493218 348.95375998 -176.72501851 335.57746896 -174.01503849 315.40580082 C-173.23698137 308.42461138 -172.98685274 301.47424793 -172.984375 294.453125 C-172.98385572 293.6670455 -172.98333645 292.880966 -172.98280144 292.0710659 C-173.01424837 282.3548481 -173.44590879 272.67285779 -174.0264926 262.97573042 C-174.56393802 253.85130089 -174.78826646 244.72251113 -175.01171875 235.5859375 C-175.24627812 226.22523208 -175.5010057 216.87166909 -175.9743042 207.51959229 C-176.68562744 193.08178217 -176.9476138 179.47271935 -173.6875 165.3125 C-173.44309174 164.22936523 -173.19868347 163.14623047 -172.9468689 162.03027344 C-172.35336454 159.53202261 -171.67564279 157.08403658 -170.9375 154.625 C-170.68145996 153.75544678 -170.42541992 152.88589355 -170.16162109 151.98999023 C-158.42755425 113.43166269 -131.12138558 80.59013496 -95.8503418 61.33837891 C-83.82091616 54.94805954 -71.76258778 50.09341392 -58.6875 46.3125 C-57.70930735 42.39177662 -57.55444434 38.63798996 -57.44848633 34.62426758 C-57.21133802 26.55886142 -56.866899 19.43096023 -52.6875 12.3125 C-52.28789062 11.61125 -51.88828125 10.91 -51.4765625 10.1875 C-46.21698465 2.1613234 -37.40361673 -2.91409052 -28.21875 -5.25390625 C-18.04681746 -6.99632062 -8.78689345 -5.45649729 0 0 Z M-47.6875 94.3125 C-48.44643555 94.52036133 -49.20537109 94.72822266 -49.98730469 94.94238281 C-64.26013958 99.00061633 -77.38626778 105.69049991 -88.6875 115.3125 C-89.54472656 116.02019531 -90.40195313 116.72789062 -91.28515625 117.45703125 C-102.24634163 126.85959367 -110.09008391 137.62060984 -116.6875 150.3125 C-117.15929687 151.19164062 -117.63109375 152.07078125 -118.1171875 152.9765625 C-126.16236142 169.11688036 -127.84191006 186.52803518 -127.81689453 204.25952148 C-127.81825101 205.87482238 -127.82003233 207.49012297 -127.82220459 209.10542297 C-127.82674699 213.47265346 -127.82500321 217.83986021 -127.8218255 222.20709109 C-127.81928843 226.77901697 -127.82164292 231.35094086 -127.82321167 235.92286682 C-127.82502813 243.59172937 -127.82263942 251.26058227 -127.81787109 258.92944336 C-127.81241589 267.805748 -127.81420233 276.68202972 -127.8196975 285.55833381 C-127.82422734 293.17968106 -127.82488022 300.80102139 -127.82225883 308.42236954 C-127.82069709 312.97463709 -127.82049976 317.52689383 -127.82379532 322.07916069 C-127.82667262 326.35141901 -127.82470099 330.62364755 -127.81890106 334.89590263 C-127.81757328 336.46773224 -127.81796788 338.03956434 -127.82016373 339.61139297 C-127.8228742 341.74763117 -127.81949558 343.88377235 -127.81448364 346.02000427 C-127.81410662 347.21808433 -127.81372959 348.41616438 -127.81334114 349.65054989 C-127.99043401 352.23387514 -127.99043401 352.23387514 -126.6875 353.3125 C-123.94373107 353.41037219 -121.22514022 353.44243342 -118.48094177 353.43275452 C-117.17496516 353.43403615 -117.17496516 353.43403615 -115.84260517 353.43534368 C-112.90212978 353.43700116 -109.96171044 353.43147276 -107.02124023 353.42602539 C-104.92259726 353.42574355 -102.82395419 353.42590119 -100.72531128 353.4264679 C-95.0086021 353.426756 -89.29191371 353.42085728 -83.57520938 353.41389394 C-77.60808844 353.40766244 -71.64096708 353.40705676 -65.67384338 353.40586853 C-54.36555371 353.40275461 -43.05727364 353.3945404 -31.74898821 353.38451904 C-18.87859449 353.37335979 -6.00820031 353.36784793 6.86219704 353.36282361 C33.3456367 353.35235784 59.82906781 353.33475723 86.3125 353.3125 C87.67300331 350.59149337 87.44156644 348.45227614 87.44621277 345.40483093 C87.45047775 344.14506439 87.45474274 342.88529785 87.45913696 341.58735657 C87.45878738 340.18283078 87.45832582 338.77830502 87.45776367 337.3737793 C87.46075492 335.90018631 87.46415736 334.4265941 87.46794128 332.95300293 C87.47680254 328.93737242 87.47912067 324.92176321 87.47975707 320.90612388 C87.48046793 318.38961615 87.48260324 315.87311382 87.48525429 313.35660744 C87.49452421 304.55324588 87.49858831 295.74989948 87.49780273 286.9465332 C87.49720585 278.78532244 87.50767629 270.62417862 87.5235464 262.46298474 C87.53672377 255.43167334 87.5419822 248.40038348 87.54134732 241.36905986 C87.54109472 237.18157501 87.54381036 232.99414925 87.55452538 228.80667686 C87.6528659 187.38120745 84.44444959 153.12212627 55.3125 121.3125 C39.103676 106.16738008 19.91337731 96.7667829 -1.6875 92.3125 C-2.58339844 92.11914062 -3.47929687 91.92578125 -4.40234375 91.7265625 C-18.6535239 89.93033765 -33.84701674 90.42436424 -47.6875 94.3125 Z " fill="#B2B1B1" transform="translate(266.6875,15.6875)"/>
<path d="M0 0 C32.01 0 64.02 0 97 0 C96.26020197 8.8775763 95.77556314 14.43673365 92 22 C91.38318359 23.25103516 91.38318359 23.25103516 90.75390625 24.52734375 C84.15259118 36.66403916 73.63557243 43.74042505 60.6875 47.8125 C47.92310335 50.9586541 35.29507994 49.13954678 23.8125 42.875 C11.73462585 35.29085187 5.50691678 25.91135169 0.80859375 12.6328125 C0 9 0 9 0 0 Z " fill="#B2B0B0" transform="translate(198,441)"/>
<path d="M0 0 C2.97 0.495 2.97 0.495 6 1 C2.76690205 3.59591806 -0.63749414 5.46624255 -4.3125 7.375 C-9.18068865 9.95711358 -13.63270746 12.64835689 -18 16 C-18.33 15.01 -18.66 14.02 -19 13 C-18.236875 12.401875 -17.47375 11.80375 -16.6875 11.1875 C-14.07792652 9.19599823 -14.07792652 9.19599823 -12.5 7.25 C-10.3636347 5.46969558 -8.69013111 5.78188126 -6 6 C-6 5.34 -6 4.68 -6 4 C-5.195625 3.71125 -4.39125 3.4225 -3.5625 3.125 C-0.8673532 2.26737432 -0.8673532 2.26737432 0 0 Z " fill="#B6AAA9" transform="translate(198,114)"/>
<path d="M0 0 C0.5775 0.226875 1.155 0.45375 1.75 0.6875 C0.76 2.6675 -0.23 4.6475 -1.25 6.6875 C-1.58 6.0275 -1.91 5.3675 -2.25 4.6875 C-2.91 4.6875 -3.57 4.6875 -4.25 4.6875 C-4.25 5.3475 -4.25 6.0075 -4.25 6.6875 C-5.19875 6.935 -6.1475 7.1825 -7.125 7.4375 C-10.72798453 8.87869381 -10.70796897 9.3978338 -12.25 12.6875 C-14.625 13.8125 -14.625 13.8125 -17.25 14.6875 C-18.59050052 15.33963539 -19.92661368 16.00129969 -21.25 16.6875 C-18.42219324 12.91264475 -15.43028453 10.00470549 -11.75 7.0625 C-10.8115625 6.30710937 -9.873125 5.55171875 -8.90625 4.7734375 C-8.0296875 4.08507812 -7.153125 3.39671875 -6.25 2.6875 C-5.52296875 2.09582031 -4.7959375 1.50414063 -4.046875 0.89453125 C-2.25 -0.3125 -2.25 -0.3125 0 0 Z " fill="#B4ACAC" transform="translate(158.25,86.3125)"/>
<path d="M0 0 C1.85329634 2.77994451 2.68563605 4.78256551 3.625 7.9375 C3.88539063 8.79214844 4.14578125 9.64679688 4.4140625 10.52734375 C5 13 5 13 5 17 C4.34 17 3.68 17 3 17 C3 16.34 3 15.68 3 15 C2.01 14.67 1.02 14.34 0 14 C0.020625 12.948125 0.04125 11.89625 0.0625 10.8125 C0.11679665 7.14519217 0.11679665 7.14519217 -0.5625 4.1875 C-1 2 -1 2 0 0 Z " fill="#B0A9A6" transform="translate(393,162)"/>
<path d="M0 0 C0.33 0.66 0.66 1.32 1 2 C0.01 2.66 -0.98 3.32 -2 4 C-2.433125 4.99 -2.433125 4.99 -2.875 6 C-4.42264741 8.75137318 -6.05965557 9.01988519 -9 10 C-10.34050052 10.65213539 -11.67661368 11.31379969 -13 12 C-9.48451346 6.95604105 -4.88263123 3.62024153 0 0 Z " fill="#A69D9D" transform="translate(150,91)"/>
<path d="M0 0 C0.66 0.33 1.32 0.66 2 1 C0 4 0 4 -2 5 C-2.33 5.66 -2.66 6.32 -3 7 C-3.66 6.67 -4.32 6.34 -5 6 C-5.33 6 -5.66 6 -6 6 C-7.33568021 5.67619874 -8.66923011 5.34342449 -10 5 C-8.38007835 4.13624104 -6.75388139 3.28424146 -5.125 2.4375 C-4.22007812 1.96183594 -3.31515625 1.48617187 -2.3828125 0.99609375 C-1.20332031 0.50302734 -1.20332031 0.50302734 0 0 Z " fill="#B0A8A6" transform="translate(185,70)"/>
<path d="M0 0 C0.99 0.33 1.98 0.66 3 1 C0.69 3.31 -1.62 5.62 -4 8 C-5.32 7.34 -6.64 6.68 -8 6 C-7.05125 5.7525 -6.1025 5.505 -5.125 5.25 C-1.91306809 4.3142923 -1.91306809 4.3142923 -0.625 1.875 C-0.41875 1.25625 -0.2125 0.6375 0 0 Z " fill="#B4AAA9" transform="translate(172,133)"/>
<path d="M0 0 C0 2.83967231 -0.40267181 5.23735711 -1 8 C-1.99 8.33 -2.98 8.66 -4 9 C-4.99 8.34 -5.98 7.68 -7 7 C-4.69 4.69 -2.38 2.38 0 0 Z " fill="#ABA3A3" transform="translate(136,103)"/>
<path d="M0 0 C1.98 0.99 1.98 0.99 4 2 C3.34 3.65 2.68 5.3 2 7 C2.66 7.33 3.32 7.66 4 8 C3.01 8 2.02 8 1 8 C-0.35439668 5.29120665 -0.06501451 2.99066732 0 0 Z " fill="#B1A9A9" transform="translate(203,458)"/>
<path d="M0 0 C6.625 -0.25 6.625 -0.25 10 2 C7.69 2.66 5.38 3.32 3 4 C3 3.34 3 2.68 3 2 C2.34 1.67 1.68 1.34 1 1 C0.67 1.99 0.34 2.98 0 4 C0 2.68 0 1.36 0 0 Z " fill="#BEB6B6" transform="translate(199,442)"/>
<path d="M0 0 C2.31 0.66 4.62 1.32 7 2 C7.33 3.32 7.66 4.64 8 6 C4.74456771 5.65120368 3.98126893 4.97866739 1.75 2.4375 C1.1725 1.633125 0.595 0.82875 0 0 Z " fill="#ACA3A2" transform="translate(315,131)"/>
<path d="M0 0 C3 1 3 1 5 2 C5.625 4.0625 5.625 4.0625 6 6 C0.25 4.25 0.25 4.25 -2 2 C-1.34 2 -0.68 2 0 2 C0 1.34 0 0.68 0 0 Z " fill="#B0A9A8" transform="translate(295,115)"/>
<path d="M0 0 C0.33 0.66 0.66 1.32 1 2 C-7.57142857 1.14285714 -7.57142857 1.14285714 -11 -1 C-3.375 -2.25 -3.375 -2.25 0 0 Z " fill="#A99C9A" transform="translate(277,109)"/>
<path d="M0 0 C1.0625 1.8125 1.0625 1.8125 2 4 C1.67 4.99 1.34 5.98 1 7 C-1.0625 7.6875 -1.0625 7.6875 -3 8 C-1.125 2.25 -1.125 2.25 0 0 Z " fill="#ABA2A1" transform="translate(107,142)"/>
<path d="M0 0 C2.97 0.495 2.97 0.495 6 1 C3.37801226 3.15377564 1.35595828 4.40072174 -2 5 C-1.34 3.35 -0.68 1.7 0 0 Z " fill="#B1A2A2" transform="translate(198,114)"/>
<path d="M0 0 C1.9375 0.8125 1.9375 0.8125 4 2 C4.33 2.99 4.66 3.98 5 5 C3.02 5.33 1.04 5.66 -1 6 C-0.67 4.02 -0.34 2.04 0 0 Z " fill="#AE9C9D" transform="translate(99,160)"/>
<path d="M0 0 C0.99 0 1.98 0 3 0 C2.43628586 3.26954202 1.50037734 4.82575883 -1 7 C-2 4 -2 4 -1.0625 1.8125 C-0.5365625 0.9153125 -0.5365625 0.9153125 0 0 Z " fill="#B8ACAA" transform="translate(159,145)"/>
<path d="M0 0 C0 0.33 0 0.66 0 1 C-8.03571429 3.27678571 -8.03571429 3.27678571 -12 2 C-11.01 2 -10.02 2 -9 2 C-9 1.34 -9 0.68 -9 0 C-5.52176885 -1.15941038 -3.54104422 -0.70820884 0 0 Z " fill="#ACA2A1" transform="translate(227,108)"/>
</svg>
