<?xml version="1.0" standalone="no"?>
<!DOCTYPE svg PUBLIC "-//W3C//DTD SVG 20010904//EN"
 "http://www.w3.org/TR/2001/REC-SVG-20010904/DTD/svg10.dtd">
<svg version="1.0" xmlns="http://www.w3.org/2000/svg"
 width="500.000000pt" height="500.000000pt" viewBox="0 0 500.000000 500.000000"
 preserveAspectRatio="xMidYMid meet">

<g transform="translate(0.000000,500.000000) scale(0.100000,-0.100000)"
fill="#000000" stroke="none">
<path d="M2235 4619 c-382 -48 -758 -208 -1072 -456 -86 -68 -244 -224 -321
-318 -235 -285 -404 -675 -456 -1053 -23 -163 -21 -443 4 -607 68 -447 261
-840 570 -1159 191 -197 359 -321 595 -436 314 -154 596 -220 945 -220 336 0
621 64 920 206 573 274 998 793 1149 1404 46 189 61 315 61 519 0 360 -68 647
-231 973 -306 611 -930 1053 -1615 1143 -126 16 -431 18 -549 4z m387 -535
c51 -17 108 -67 135 -117 13 -23 18 -56 18 -117 0 -50 6 -95 13 -108 17 -29 1
-84 -32 -109 -14 -11 -31 -46 -44 -88 -78 -257 -346 -257 -424 0 -13 42 -30
77 -44 88 -32 25 -49 80 -33 109 7 13 13 60 14 108 0 61 5 94 18 117 27 51 87
102 136 118 63 19 187 19 243 -1z m-288 -834 c4 -33 16 -85 26 -115 21 -62 71
-158 78 -151 2 3 8 45 12 93 6 76 5 91 -10 108 -26 30 -42 64 -35 75 7 11 178
14 188 4 8 -8 -11 -55 -32 -79 -16 -17 -17 -31 -11 -108 4 -48 10 -90 12 -93
7 -7 57 89 78 151 10 30 22 82 26 115 4 33 9 60 13 60 3 0 71 -23 151 -50 217
-75 234 -99 245 -355 3 -71 8 -174 11 -227 5 -89 4 -97 -15 -107 -27 -15
-1114 -15 -1142 0 -22 11 -22 5 -3 349 13 246 25 263 239 339 77 27 145 50
151 50 7 1 14 -24 18 -59z m1108 -234 c34 -8 84 -50 105 -89 9 -18 15 -54 15
-85 0 -48 5 -62 43 -117 55 -81 85 -161 85 -229 0 -51 1 -54 29 -59 28 -6 61
-31 61 -46 0 -4 -6 -14 -12 -23 -18 -21 -588 -482 -615 -496 -12 -7 -62 -12
-111 -12 l-88 0 -11 71 c-14 87 -46 138 -110 176 l-48 28 -285 0 c-259 0 -288
-2 -320 -19 -79 -42 -114 -96 -125 -193 l-7 -63 -88 0 c-49 0 -96 3 -106 7
-22 8 -617 491 -627 508 -11 20 3 45 30 56 14 5 485 9 1149 9 l1124 0 0 44 c0
51 -17 95 -59 154 -30 40 -33 42 -85 42 -101 0 -173 81 -164 186 7 80 56 138
133 154 30 6 37 6 87 -4z m-669 -990 c67 -27 66 -22 103 -548 31 -436 32 -483
19 -512 -31 -65 -38 -66 -395 -66 -357 0 -364 1 -395 66 -14 29 -12 76 19 513
37 524 36 519 99 546 46 20 503 21 550 1z"/>
</g>
</svg>
