<?xml version="1.0" encoding="UTF-8"?>
<svg version="1.1" xmlns="http://www.w3.org/2000/svg" width="500" height="500">
<path d="M0 0 C0.79640396 -0.00701431 1.59280792 -0.01402863 2.41334534 -0.02125549 C4.98265255 -0.03872676 7.55172924 -0.04511176 10.12109375 -0.046875 C10.99852234 -0.04754974 11.87595093 -0.04822449 12.77996826 -0.04891968 C26.24862589 -0.03245207 39.32778576 0.47245525 52.55859375 3.203125 C53.43032227 3.38004883 54.30205078 3.55697266 55.20019531 3.73925781 C106.96374284 14.53965205 154.85164157 42.29191548 187.55859375 84.203125 C188.35910156 85.19828125 189.15960938 86.1934375 189.984375 87.21875 C220.3243758 125.26678305 236.29677793 172.70550843 237.55859375 221.203125 C237.59855469 222.28078125 237.63851563 223.3584375 237.6796875 224.46875 C238.67408834 273.83782697 221.70222445 320.29717536 193.55859375 360.203125 C193.0275 360.98558594 192.49640625 361.76804687 191.94921875 362.57421875 C190.86930566 364.15279759 189.72303404 365.68582402 188.55859375 367.203125 C187.89859375 367.203125 187.23859375 367.203125 186.55859375 367.203125 C186.33816406 367.74066406 186.11773437 368.27820313 185.890625 368.83203125 C184.10808072 372.00506462 181.72267865 374.50617014 179.24609375 377.140625 C178.77236328 377.65302734 178.29863281 378.16542969 177.81054688 378.69335938 C174.79763963 381.93707757 171.69963653 385.08278102 168.55859375 388.203125 C167.94757813 388.83734375 167.3365625 389.4715625 166.70703125 390.125 C161.35976756 395.63715729 155.60823508 400.47995762 149.55859375 405.203125 C149.02411621 405.62464844 148.48963867 406.04617188 147.93896484 406.48046875 C111.79117551 434.78556316 66.32312975 450.41798352 20.55859375 452.203125 C19.24117187 452.25597656 17.92375 452.30882812 16.56640625 452.36328125 C-4.51350574 452.90865317 -26.01666077 450.41317815 -46.44140625 445.203125 C-47.10865723 445.04150879 -47.7759082 444.87989258 -48.46337891 444.71337891 C-79.68362397 437.0437758 -114.24894094 419.90732789 -137.44140625 397.203125 C-137.44140625 396.543125 -137.44140625 395.883125 -137.44140625 395.203125 C-138.01705322 394.95054932 -138.5927002 394.69797363 -139.18579102 394.43774414 C-172.37054255 376.2739506 -195.58042516 324.81186266 -205.99487305 290.26831055 C-211.93608736 269.55425391 -214.62889764 248.96236784 -214.62670898 227.47851562 C-214.62888377 225.10267888 -214.64707845 222.72731699 -214.66601562 220.3515625 C-214.72111275 205.68311518 -213.48556654 191.22343902 -210.25390625 176.890625 C-209.93244629 175.451427 -209.93244629 175.451427 -209.60449219 173.9831543 C-201.07177749 137.21222287 -183.15374883 104.50715087 -158.44140625 76.203125 C-157.54407501 75.08218799 -156.64693664 73.96109654 -155.75 72.83984375 C-154.98816406 71.96972656 -154.22632813 71.09960938 -153.44140625 70.203125 C-152.78140625 70.203125 -152.12140625 70.203125 -151.44140625 70.203125 C-151.0546875 69.32914063 -151.0546875 69.32914063 -150.66015625 68.4375 C-147.04959998 61.81814683 -140.0942388 56.93839485 -134.23828125 52.38671875 C-132.26610284 50.84698728 -130.32029801 49.27318009 -128.39453125 47.67578125 C-106.840818 29.9034212 -81.00532622 17.48436365 -54.44140625 9.203125 C-53.31557129 8.84395996 -53.31557129 8.84395996 -52.16699219 8.47753906 C-40.88557481 4.92095755 -29.61006254 2.93977455 -17.87817383 1.51269531 C-15.97347755 1.27072007 -14.07447443 0.98382675 -12.17871094 0.6796875 C-8.08886967 0.15817129 -4.11693224 0.02422263 0 0 Z M-136.25390625 95.265625 C-137.66656723 96.89703758 -139.06214473 98.54337932 -140.44140625 100.203125 C-141.21484375 101.12738281 -141.98828125 102.05164063 -142.78515625 103.00390625 C-176.09965448 144.4888906 -189.74192317 197.23096307 -184.1171875 249.71484375 C-179.95963181 284.91548191 -166.43280951 321.5865226 -142.44140625 348.203125 C-140.26198305 347.39563054 -140.26198305 347.39563054 -139.69873047 345.24804688 C-139.46686035 344.39791016 -139.23499023 343.54777344 -138.99609375 342.671875 C-138.5942688 341.25080444 -138.5942688 341.25080444 -138.18432617 339.80102539 C-137.8979126 338.77871826 -137.61149902 337.75641113 -137.31640625 336.703125 C-129.44716792 309.90053649 -114.90493455 288.09917615 -95.44140625 268.203125 C-94.78140625 267.873125 -94.12140625 267.543125 -93.44140625 267.203125 C-93.44140625 266.543125 -93.44140625 265.883125 -93.44140625 265.203125 C-92.87808594 264.955625 -92.31476563 264.708125 -91.734375 264.453125 C-89.05865557 262.99447045 -87.04334178 261.21581558 -84.75390625 259.203125 C-73.86588091 250.16126684 -60.92547888 243.75997706 -48.44140625 237.203125 C-49.99628622 233.16605714 -52.86920329 230.87750541 -56.06640625 228.140625 C-61.79095947 223.04577264 -66.30344682 217.68708235 -70.44140625 211.203125 C-71.11945313 210.14480469 -71.7975 209.08648437 -72.49609375 207.99609375 C-82.54408533 191.4074284 -86.87646611 174.43451803 -86.81640625 155.078125 C-86.81553009 154.38959442 -86.81465393 153.70106384 -86.81375122 152.9916687 C-86.76963083 142.4896419 -86.19211332 133.08330616 -82.44140625 123.203125 C-82.19471191 122.5436084 -81.94801758 121.8840918 -81.69384766 121.20458984 C-71.87569153 95.48692735 -53.10734829 76.21679569 -28.1875 64.69921875 C-20.13599834 61.3897058 -11.99550328 59.62219214 -3.44140625 58.203125 C-2.68085938 58.07035156 -1.9203125 57.93757813 -1.13671875 57.80078125 C23.29893874 54.09994516 49.94048935 61.33433275 69.79174805 75.82348633 C91.29732052 92.25726134 104.85850327 115.06829746 108.87109375 141.828125 C111.88626518 169.19439524 105.44261088 196.19959094 88.20703125 217.88769531 C82.88480184 224.37210908 76.97730817 229.83236396 70.55859375 235.203125 C71.28522247 238.50882523 71.28522247 238.50882523 74.6640625 239.9296875 C76.02148982 240.56944125 77.38243098 241.20177236 78.74609375 241.828125 C94.42831999 249.34960599 107.84867589 259.36120153 120.55859375 271.203125 C121.57759766 272.14091797 121.57759766 272.14091797 122.6171875 273.09765625 C144.35978758 293.87780723 154.68942956 321.1865997 163.55859375 349.203125 C194.48266152 319.68715839 206.9766643 269.78974149 208.50390625 228.70019531 C208.65356192 219.13024999 207.78492864 209.68467166 206.55859375 200.203125 C206.44273926 199.28402344 206.32688477 198.36492187 206.20751953 197.41796875 C201.59196609 162.97169072 186.83289036 131.3826032 165.55859375 104.203125 C164.96046875 103.40003906 164.36234375 102.59695312 163.74609375 101.76953125 C154.69128081 89.88508927 143.48504291 79.16365457 131.55859375 70.203125 C130.96949219 69.75404785 130.38039063 69.3049707 129.7734375 68.84228516 C60.93137895 16.74136357 -38.6902089 15.9676168 -136.25390625 95.265625 Z M-40.44140625 108.203125 C-52.71969818 121.42399288 -59.1129824 139.12699723 -58.91430664 157.01855469 C-58.20502735 176.15564041 -50.28072248 193.31647551 -36.7578125 206.8984375 C-20.87124462 220.99588037 -2.47453803 226.43005769 18.55859375 225.203125 C37.07520242 223.46719294 53.66954696 213.63285661 65.71484375 199.7109375 C78.94301075 182.56519797 82.26086126 164.4866065 80.55859375 143.203125 C78.24191408 128.58417425 70.70363008 116.67193909 60.55859375 106.203125 C60.0171875 105.57664062 59.47578125 104.95015625 58.91796875 104.3046875 C47.89586554 92.00223896 30.43571497 86.82280448 14.55859375 85.203125 C-6.81944905 84.42880219 -25.64477576 93.25421358 -40.44140625 108.203125 Z M-22.44140625 259.203125 C-23.67890625 259.53054688 -24.91640625 259.85796875 -26.19140625 260.1953125 C-57.44244711 269.42245172 -83.75421099 291.55960543 -99.62792969 319.79248047 C-107.80971485 334.92425132 -114.17497355 353.42227174 -114.81640625 370.765625 C-114.86539063 371.67441406 -114.914375 372.58320313 -114.96484375 373.51953125 C-114.22115885 377.33230386 -112.34008343 378.68638171 -109.44140625 381.203125 C-108.59707031 381.94691406 -107.75273437 382.69070313 -106.8828125 383.45703125 C-68.84570474 413.95897248 -16.56681148 427.30606945 31.55859375 422.203125 C66.98864581 418.12402794 101.37682429 405.3134181 129.55859375 383.203125 C130.28691406 382.75324219 131.01523437 382.30335938 131.765625 381.83984375 C134.8966328 379.74632966 136.31972176 378.3195198 137.12109375 374.57421875 C138.21739781 347.20087682 123.83870412 318.12285888 106.18359375 298.140625 C104.65030906 296.48698008 103.10852413 294.84117851 101.55859375 293.203125 C100.78773438 292.3678125 100.016875 291.5325 99.22265625 290.671875 C92.99633296 284.14330301 86.15425761 279.00130805 78.55859375 274.203125 C77.47835937 273.5121875 76.398125 272.82125 75.28515625 272.109375 C46.28316869 254.53241285 10.14128786 249.81034254 -22.44140625 259.203125 Z " fill="#ABABAB" transform="translate(238.44140625,23.796875)"/>
<path d="M0 0 C0.66 1.32 1.32 2.64 2 4 C-1.51758794 8.77386935 -1.51758794 8.77386935 -4 9.9375 C-7.00745028 11.53520796 -8.19826355 14.17727956 -10 17 C-10.66 17.33 -11.32 17.66 -12 18 C-12.33 18.99 -12.66 19.98 -13 21 C-13.66 21 -14.32 21 -15 21 C-12.14484112 12.9177041 -6.3167845 5.72458595 0 0 Z " fill="#7A7A7A" transform="translate(179,109)"/>
<path d="M0 0 C0.66 0.33 1.32 0.66 2 1 C-4.93 7.435 -4.93 7.435 -12 14 C-12.66 13.34 -13.32 12.68 -14 12 C-12.41856529 10.56041153 -10.83477221 9.12341355 -9.25 7.6875 C-8.36828125 6.88699219 -7.4865625 6.08648437 -6.578125 5.26171875 C-4.44550672 3.39083089 -2.29812057 1.65915714 0 0 Z " fill="#757575" transform="translate(113,69)"/>
<path d="M0 0 C0.33 0.66 0.66 1.32 1 2 C0.34 2 -0.32 2 -1 2 C-1 2.99 -1 3.98 -1 5 C-3.1875 7.04296875 -3.1875 7.04296875 -6 9.1875 C-6.928125 9.90292969 -7.85625 10.61835938 -8.8125 11.35546875 C-9.8953125 12.16951172 -9.8953125 12.16951172 -11 13 C-11 10 -11 10 -9.5390625 8.17578125 C-8.90742188 7.56089844 -8.27578125 6.94601562 -7.625 6.3125 C-6.99851563 5.68988281 -6.37203125 5.06726563 -5.7265625 4.42578125 C-4 3 -4 3 -2 3 C-2 2.34 -2 1.68 -2 1 C-1.34 0.67 -0.68 0.34 0 0 Z " fill="#636363" transform="translate(147,288)"/>
<path d="M0 0 C2.875 -0.1875 2.875 -0.1875 6 0 C8.1519437 3.22791555 8.20086443 4.28400809 8 8 C6.85073734 7.04578192 5.70569459 6.08647955 4.5625 5.125 C3.92441406 4.59132813 3.28632812 4.05765625 2.62890625 3.5078125 C1 2 1 2 0 0 Z " fill="#8B8B8B" transform="translate(82,401)"/>
<path d="M0 0 C0 4.6091008 -2.67465029 7.57998246 -5.75 10.875 C-6.1625 11.24625 -6.575 11.6175 -7 12 C-7.66 11.67 -8.32 11.34 -9 11 C-7.68823998 9.35357683 -6.3755713 7.70787757 -5.0625 6.0625 C-4.33160156 5.14597656 -3.60070312 4.22945313 -2.84765625 3.28515625 C-1 1 -1 1 0 0 Z " fill="#5E5E5E" transform="translate(85,94)"/>
<path d="M0 0 C2 3 2 3 1.625 5.6875 C1.41875 6.450625 1.2125 7.21375 1 8 C-0.32 7.67 -1.64 7.34 -3 7 C-1.125 1.125 -1.125 1.125 0 0 Z " fill="#B3B3B3" transform="translate(85,96)"/>
<path d="M0 0 C1.5625 1.25 1.5625 1.25 3 3 C2.6875 5.1875 2.6875 5.1875 2 7 C1.34 7 0.68 7 0 7 C-0.66 5.68 -1.32 4.36 -2 3 C-1.34 2.01 -0.68 1.02 0 0 Z " fill="#9C9C9C" transform="translate(356,442)"/>
<path d="M0 0 C0.66 0.33 1.32 0.66 2 1 C1.195625 1.763125 0.39125 2.52625 -0.4375 3.3125 C-3.16799024 5.79430898 -3.16799024 5.79430898 -4 9 C-4.66 9 -5.32 9 -6 9 C-4.68775452 5.06326356 -3.08089673 2.77280706 0 0 Z " fill="#6C6C6C" transform="translate(170,121)"/>
<path d="M0 0 C0.66 0.66 1.32 1.32 2 2 C-1.625 6.875 -1.625 6.875 -5 8 C-3.62845496 5.04590299 -2.01136276 2.55991624 0 0 Z " fill="#656565" transform="translate(410,363)"/>
<path d="M0 0 C1.32 0.66 2.64 1.32 4 2 C4 3.65 4 5.3 4 7 C2.02 5.35 0.04 3.7 -2 2 C-1.34 1.34 -0.68 0.68 0 0 Z " fill="#6D6D6D" transform="translate(385,104)"/>
<path d="M0 0 C0.99 0.33 1.98 0.66 3 1 C1.63016497 4.16115776 1.0109362 4.9927092 -2 7 C-1.125 2.25 -1.125 2.25 0 0 Z " fill="#666666" transform="translate(323,241)"/>
<path d="M0 0 C3.465 1.98 3.465 1.98 7 4 C6.34 4.66 5.68 5.32 5 6 C2.875 5.625 2.875 5.625 1 5 C0.67 3.35 0.34 1.7 0 0 Z " fill="#808080" transform="translate(361,53)"/>
</svg>
