<?xml version="1.0" standalone="no"?>
<!DOCTYPE svg PUBLIC "-//W3C//DTD SVG 20010904//EN"
 "http://www.w3.org/TR/2001/REC-SVG-20010904/DTD/svg10.dtd">
<svg version="1.0" xmlns="http://www.w3.org/2000/svg"
 width="500.000000pt" height="500.000000pt" viewBox="0 0 500.000000 500.000000"
 preserveAspectRatio="xMidYMid meet">

<g transform="translate(0.000000,500.000000) scale(0.100000,-0.100000)"
fill="#000000" stroke="none">
<path d="M2325 4123 c-545 -85 -941 -361 -1185 -825 -129 -245 -189 -562 -160
-843 63 -613 463 -1112 1050 -1309 213 -71 513 -90 745 -47 445 82 817 344
1048 737 143 244 219 561 203 842 -36 629 -439 1165 -1027 1368 -168 58 -274
75 -469 79 -96 2 -188 1 -205 -2z m-186 -554 c111 -30 224 -93 308 -172 l71
-68 21 28 c40 51 135 124 216 164 211 104 481 89 676 -39 156 -103 257 -243
303 -419 19 -72 21 -242 5 -311 -17 -69 -84 -208 -129 -268 -39 -52 -1064
-1062 -1087 -1071 -6 -3 -260 233 -563 524 -595 570 -622 600 -678 755 -25 67
-27 85 -27 218 0 138 2 149 31 220 39 98 102 189 184 270 178 175 417 235 669
169z"/>
</g>
</svg>
