<?xml version="1.0" standalone="no"?>
<!DOCTYPE svg PUBLIC "-//W3C//DTD SVG 20010904//EN"
 "http://www.w3.org/TR/2001/REC-SVG-20010904/DTD/svg10.dtd">
<svg version="1.0" xmlns="http://www.w3.org/2000/svg"
 width="500.000000pt" height="500.000000pt" viewBox="0 0 500.000000 500.000000"
 preserveAspectRatio="xMidYMid meet">

<g transform="translate(0.000000,500.000000) scale(0.100000,-0.100000)"
fill="#000000" stroke="none">
<path d="M2235 4619 c-468 -59 -916 -281 -1247 -616 -174 -176 -282 -325 -385
-528 -115 -227 -185 -448 -218 -683 -22 -161 -20 -443 4 -602 68 -451 261
-843 571 -1164 188 -194 347 -311 585 -432 304 -153 602 -223 952 -224 339 0
623 63 923 206 504 241 895 672 1088 1199 84 231 122 458 122 723 0 363 -67
646 -231 974 -307 614 -925 1050 -1619 1144 -116 15 -432 17 -545 3z m-775
-1194 c239 -42 586 -103 770 -135 184 -32 661 -116 1060 -186 399 -70 735
-130 748 -135 22 -8 22 -10 22 -213 0 -233 5 -219 -87 -229 -113 -13 -202 -77
-248 -178 -33 -73 -30 -112 11 -197 50 -101 149 -181 264 -212 25 -7 48 -17
52 -24 4 -6 8 -100 8 -208 0 -185 -1 -198 -19 -208 -27 -14 -3055 -14 -3082 0
-18 10 -19 23 -19 210 0 229 -3 222 97 233 62 7 132 37 111 47 -7 4 -47 13
-88 19 -126 22 -120 9 -120 234 0 105 4 198 9 205 5 9 36 14 99 15 108 2 133
16 72 41 -23 9 -69 20 -102 25 -33 4 -64 14 -69 22 -5 8 -9 101 -9 206 0 228
-5 220 125 222 44 1 81 4 83 6 7 7 -60 44 -108 61 -25 8 -56 21 -70 28 l-25
12 -3 199 c-2 181 -1 201 15 213 10 7 29 10 43 8 14 -3 221 -39 460 -81z"/>
<path d="M1040 3270 c0 -81 4 -120 11 -120 31 0 146 -67 198 -115 l59 -55 151
0 151 0 0 45 c0 43 16 65 49 65 23 0 51 -41 51 -75 l0 -35 826 -2 c454 -2 830
-1 835 2 5 4 -89 23 -209 44 -119 21 -356 62 -527 92 -170 30 -438 77 -595
104 -157 28 -295 52 -307 55 -20 5 -23 1 -23 -23 0 -49 -57 -81 -88 -50 -7 7
-12 30 -12 53 l0 41 -272 47 c-150 26 -279 48 -285 47 -10 0 -13 -31 -13 -120z"/>
<path d="M1040 2752 l0 -119 62 -17 c156 -43 269 -166 298 -324 35 -193 -107
-399 -307 -443 l-53 -12 0 -124 0 -123 1460 0 1460 0 0 124 0 124 -37 7 c-113
20 -239 120 -289 228 -26 55 -29 73 -29 162 0 88 3 107 27 157 51 109 161 198
281 228 l47 12 0 119 0 119 -1460 0 -1460 0 0 -118z m650 18 c16 -16 20 -33
20 -83 0 -85 -33 -123 -79 -91 -18 13 -21 25 -21 89 0 65 3 76 22 89 29 20 34
20 58 -4z m986 -131 c17 -19 17 -23 3 -47 l-15 -27 -337 -3 c-222 -1 -345 1
-357 8 -23 12 -27 59 -8 78 9 9 101 12 353 12 333 0 342 -1 361 -21z m-976
-178 c5 -11 10 -47 10 -80 0 -48 -4 -65 -20 -81 -24 -24 -43 -25 -64 -4 -20
19 -23 153 -4 172 19 19 66 15 78 -7z m1676 -76 c15 -23 15 -27 0 -50 l-16
-25 -693 0 c-526 0 -696 3 -705 12 -7 7 -12 24 -12 38 0 14 5 31 12 38 9 9
179 12 705 12 l693 0 16 -25z m-1682 -221 c24 -23 22 -135 -3 -165 -16 -20
-23 -22 -47 -14 -28 10 -29 13 -32 89 -2 49 1 83 9 92 15 19 54 18 73 -2z
m1676 -24 c24 -24 24 -29 4 -58 l-15 -22 -693 0 c-525 0 -695 3 -704 12 -18
18 -15 65 6 77 11 7 255 10 700 11 669 0 682 0 702 -20z m0 -250 c24 -24 25
-39 6 -66 -14 -18 -34 -19 -693 -22 -738 -2 -725 -3 -731 53 -7 57 -29 55 715
55 670 0 683 0 703 -20z m-1678 -27 c27 -25 26 -143 -2 -168 -16 -15 -26 -17
-48 -9 -26 9 -27 13 -30 88 -2 49 1 83 9 92 15 19 48 18 71 -3z"/>
<path d="M1180 2383 c-36 -12 -82 -22 -102 -23 l-38 0 0 -123 0 -124 83 -12
c45 -7 94 -15 110 -18 24 -5 29 -1 48 42 35 79 24 199 -23 263 -12 16 -17 16
-78 -5z"/>
</g>
</svg>
