<?xml version="1.0" standalone="no"?>
<!DOCTYPE svg PUBLIC "-//W3C//DTD SVG 20010904//EN"
 "http://www.w3.org/TR/2001/REC-SVG-20010904/DTD/svg10.dtd">
<svg version="1.0" xmlns="http://www.w3.org/2000/svg"
 width="500.000000pt" height="500.000000pt" viewBox="0 0 500.000000 500.000000"
 preserveAspectRatio="xMidYMid meet">

<g transform="translate(0.000000,500.000000) scale(0.100000,-0.100000)"
fill="#000000" stroke="none">
<path d="M2258 4620 c-326 -38 -668 -164 -936 -344 -145 -97 -244 -180 -363
-303 -483 -504 -686 -1208 -548 -1903 126 -632 557 -1190 1144 -1480 839 -414
1837 -237 2490 441 360 374 566 868 582 1395 12 372 -54 685 -212 1009 -317
654 -955 1104 -1680 1185 -103 11 -378 11 -477 0z m-15 -1096 l45 -6 48 -112
c26 -61 67 -165 90 -231 23 -66 45 -113 48 -105 3 8 26 73 51 144 26 71 65
167 88 215 l42 86 60 6 c106 11 196 -8 460 -96 219 -73 276 -89 460 -121 234
-40 308 -60 410 -111 74 -36 128 -81 151 -125 24 -47 17 -145 -20 -275 -39
-132 -209 -634 -249 -732 -94 -228 -429 -573 -672 -691 -98 -48 -147 -59 -251
-60 -102 0 -191 26 -271 80 -90 60 -203 199 -248 306 l-16 39 -38 -72 c-122
-232 -294 -353 -501 -353 -187 0 -376 106 -620 350 -142 141 -237 267 -290
383 -36 80 -222 620 -259 751 -53 188 -50 254 14 325 34 37 138 94 228 125 49
17 299 68 392 81 86 12 163 34 375 106 280 97 348 110 473 93z"/>
<path d="M1957 3130 c-92 -24 -196 -100 -234 -173 -22 -44 -9 -43 44 1 118 99
244 152 367 153 59 0 67 2 46 11 -35 14 -177 19 -223 8z"/>
<path d="M2830 3114 c-47 -13 -140 -58 -140 -68 0 -2 27 5 61 15 111 35 260
18 403 -45 70 -31 69 -31 57 -8 -17 32 -114 91 -176 107 -73 18 -133 18 -205
-1z"/>
<path d="M3491 2931 c-10 -6 -4 -11 20 -16 167 -33 303 -113 374 -218 44 -65
45 -44 3 35 -41 77 -131 160 -203 187 -58 22 -168 28 -194 12z"/>
<path d="M1193 2904 c-29 -7 -72 -23 -95 -35 -44 -22 -131 -89 -125 -95 2 -2
28 9 58 26 109 59 250 75 389 45 73 -15 86 -12 51 14 -64 48 -189 69 -278 45z"/>
<path d="M2129 2729 c-73 -10 -156 -50 -207 -100 -59 -56 -54 -104 15 -130 65
-25 215 2 294 52 53 34 134 113 134 131 0 36 -130 62 -236 47z"/>
<path d="M2621 2717 c-58 -21 -62 -40 -16 -88 90 -93 192 -139 310 -142 194
-4 188 118 -10 210 -50 22 -76 28 -155 30 -58 2 -108 -2 -129 -10z"/>
<path d="M1310 2502 c-86 -29 -169 -87 -202 -140 -25 -41 -16 -54 54 -71 178
-43 418 54 418 168 0 35 -44 54 -134 58 -59 2 -96 -2 -136 -15z"/>
<path d="M3420 2509 c-47 -15 -60 -27 -60 -58 0 -51 36 -90 118 -129 69 -33
87 -37 172 -40 212 -7 247 52 91 157 -31 21 -79 46 -106 56 -61 21 -168 28
-215 14z"/>
<path d="M2143 1916 c-151 -131 -326 -182 -485 -140 -33 8 -67 13 -77 11 -27
-6 75 -97 154 -137 63 -32 77 -35 154 -35 71 0 95 4 136 25 69 34 136 103 173
180 31 64 46 150 27 156 -5 1 -43 -26 -82 -60z"/>
<path d="M2805 1817 c-83 -28 -175 -93 -175 -124 0 -13 11 -14 73 -7 230 27
378 -12 511 -136 67 -63 83 -65 71 -7 -22 104 -122 219 -223 258 -71 26 -200
35 -257 16z"/>
</g>
</svg>
