<?xml version="1.0" standalone="no"?>
<!DOCTYPE svg PUBLIC "-//W3C//DTD SVG 20010904//EN"
 "http://www.w3.org/TR/2001/REC-SVG-20010904/DTD/svg10.dtd">
<svg version="1.0" xmlns="http://www.w3.org/2000/svg"
 width="500.000000pt" height="500.000000pt" viewBox="0 0 500.000000 500.000000"
 preserveAspectRatio="xMidYMid meet">

<g transform="translate(0.000000,500.000000) scale(0.100000,-0.100000)"
fill="#000000" stroke="none">
<path d="M2290 4623 c-729 -76 -1361 -506 -1688 -1150 -112 -219 -183 -445
-216 -681 -21 -150 -21 -438 0 -585 104 -720 550 -1326 1204 -1636 291 -137
578 -201 910 -201 336 0 621 64 920 206 573 274 998 793 1149 1404 46 189 61
315 61 518 0 364 -69 653 -233 977 -314 620 -935 1055 -1627 1140 -112 13
-384 18 -480 8z m483 -863 c445 -51 886 -248 1232 -551 63 -55 115 -103 115
-107 0 -10 -213 -222 -223 -222 -5 0 -39 27 -75 61 -138 126 -307 239 -487
325 -264 126 -526 184 -830 184 -505 0 -937 -166 -1323 -509 l-73 -65 -114
114 -113 113 63 59 c231 216 531 394 825 492 152 51 386 101 535 115 111 11
333 6 468 -9z m-23 -645 c329 -53 612 -189 860 -414 l55 -50 -114 -115 -115
-115 -55 48 c-180 154 -353 247 -556 298 -139 34 -396 43 -546 19 -240 -40
-489 -160 -652 -315 l-58 -55 -114 114 c-63 63 -115 118 -115 122 0 13 168
151 258 211 173 116 405 209 621 247 137 24 397 26 531 5z m-15 -654 c157 -39
283 -103 408 -207 l69 -57 -113 -113 c-63 -63 -117 -114 -120 -114 -4 0 -28
18 -55 40 -60 50 -140 92 -229 122 -58 19 -91 23 -190 23 -105 0 -131 -4 -208
-29 -89 -29 -187 -84 -242 -137 l-31 -29 -114 115 -114 115 39 41 c59 60 192
145 287 183 74 30 176 57 263 70 66 10 272 -4 350 -23z m-143 -735 c197 -71
230 -340 56 -460 -49 -33 -66 -39 -125 -43 -57 -5 -78 -1 -121 17 -67 29 -127
96 -147 163 -19 63 -19 91 0 153 41 138 201 219 337 170z"/>
</g>
</svg>
